<svg width="83" height="89" viewBox="0 0 83 89" fill="none" xmlns="http://www.w3.org/2000/svg">
<g clip-path="url(#clip0_6263_371)">
<path d="M15.4472 78.1293C15.4113 78.1064 15.3282 78.0404 15.1964 77.9329C14.99 78.2196 14.6661 78.6996 14.2247 79.3746C14.1517 79.4864 14.0499 79.5566 13.9195 79.5853C13.7891 79.614 13.6644 79.5896 13.544 79.5108C13.4236 79.432 13.3506 79.3273 13.3233 79.1955C13.2961 79.0637 13.3205 78.9418 13.3936 78.8301L13.9711 77.9487C14.1846 77.622 14.5228 77.1519 14.9843 76.5386C15.45 75.9137 15.7897 75.4422 16.0018 75.1227C16.3629 74.5767 16.6882 74.4147 16.9791 74.6383C17.0637 74.6669 17.1712 74.7171 17.3044 74.7902C17.4377 74.8633 17.5939 74.9593 17.7759 75.0782C18.1887 75.3491 18.4896 75.736 18.6759 76.2419C18.8823 76.8051 18.845 77.301 18.5627 77.7309C18.2102 78.2697 17.7143 78.5592 17.078 78.5979C16.5148 78.6294 15.9717 78.4732 15.4472 78.1307V78.1293ZM17.1683 75.8464C17.1009 75.802 17.0408 75.7633 16.9892 75.7303C16.9361 75.6973 16.8917 75.6715 16.853 75.6529C16.7885 75.7518 16.6896 75.8994 16.5578 76.0972C16.4002 76.3279 16.1422 76.6804 15.7811 77.1519C15.8771 77.2393 15.943 77.2952 15.9788 77.3182C16.307 77.5331 16.6309 77.6349 16.9505 77.6205C17.2915 77.6062 17.5509 77.4615 17.7315 77.1877C17.849 77.0086 17.8447 76.7779 17.7186 76.497C17.5982 76.2261 17.4148 76.0083 17.1683 75.8478V75.8464Z" fill="white"/>
<path d="M22.6736 79.1363C22.6292 79.1134 22.5862 79.0818 22.5432 79.0431C22.2336 78.7551 21.9083 78.5215 21.5672 78.3424C21.3996 78.2549 21.2133 78.1733 21.0069 78.1002C20.8005 78.0271 20.5755 77.9597 20.3319 77.8995C20.1757 78.1962 19.935 78.6319 19.6082 79.2051C19.7372 79.2624 20.1958 79.4487 20.9811 79.7683C21.4297 79.9503 21.7105 80.0707 21.8238 80.1294C21.9556 80.1982 22.0459 80.3 22.096 80.4318C22.1462 80.5651 22.1347 80.6998 22.0617 80.8388C21.9226 81.1039 21.7019 81.1799 21.3996 81.0667C21.2147 80.9864 20.9352 80.8689 20.5641 80.7141C20.2287 80.5837 19.7286 80.3759 19.0636 80.0936C18.8988 80.3688 18.7713 80.5938 18.6796 80.7672C18.4503 81.2042 18.3457 81.4665 18.3643 81.5539C18.3729 81.5955 18.5062 81.6843 18.7627 81.819C18.9003 81.8921 19.1109 81.9982 19.3932 82.1372C19.6756 82.2762 19.8862 82.3822 20.0238 82.4553C20.0682 82.4783 20.137 82.5069 20.2316 82.5384C20.3262 82.57 20.3935 82.5986 20.4365 82.6201C20.5655 82.6875 20.6572 82.7821 20.7103 82.9039C20.7719 83.0415 20.7633 83.1848 20.6845 83.3338C20.5526 83.5832 20.3448 83.6648 20.0582 83.576C19.8131 83.5015 19.3388 83.2793 18.6366 82.911C17.91 82.5298 17.4872 82.183 17.3697 81.8706C17.2408 81.5267 17.364 80.995 17.7423 80.2742C17.8985 79.9761 18.1565 79.5376 18.5148 78.9615C18.873 78.3854 19.1296 77.9497 19.2858 77.6531C19.3273 77.5757 19.3761 77.4539 19.4334 77.2891C19.4907 77.1242 19.5409 77.0039 19.5824 76.9251C19.7601 76.5854 20.0052 76.498 20.3176 76.6628C20.415 76.7144 20.491 76.7889 20.544 76.8892C20.8364 76.9609 21.1087 77.0411 21.358 77.1314C21.6074 77.2217 21.8367 77.3206 22.0445 77.4295C22.6062 77.7247 23.0218 78.0257 23.2912 78.3309C23.456 78.5172 23.4833 78.7121 23.3758 78.917C23.3156 79.0331 23.221 79.1148 23.0935 79.1621C22.9502 79.218 22.8097 79.2094 22.6721 79.1363H22.6736Z" fill="white"/>
<path d="M27.5462 81.4624C27.3628 81.3908 27.0833 81.2661 26.7064 81.0898C26.3439 80.9178 26.063 80.7946 25.8652 80.7201C25.7692 80.9909 25.6159 81.4796 25.4009 82.1861C25.2132 82.8109 25.0512 83.2996 24.9136 83.6507C24.8821 83.731 24.8449 83.8528 24.799 84.0162C24.7531 84.1795 24.7159 84.3014 24.6844 84.3816C24.6156 84.5579 24.5167 84.7012 24.3863 84.813C24.2186 84.9563 24.0466 84.9921 23.8689 84.9233C23.7399 84.8732 23.6425 84.7872 23.5751 84.6668C23.5006 84.5321 23.4906 84.3959 23.545 84.2569C23.5579 84.224 23.5837 84.1767 23.621 84.1136C23.6583 84.052 23.6841 84.0018 23.6984 83.9674C23.7399 83.86 23.7973 83.6937 23.8661 83.4687C23.9363 83.2452 23.9922 83.0775 24.0366 82.9672C24.1598 82.6533 24.3017 82.2177 24.4622 81.6602C24.6471 81.021 24.7804 80.5825 24.8635 80.3446L24.6801 80.273C24.157 80.068 23.7557 79.8688 23.4777 79.6725C23.2427 79.5077 23.1724 79.3028 23.267 79.0591C23.3143 78.9402 23.3989 78.8485 23.5207 78.7854C23.664 78.7095 23.813 78.708 23.9678 78.7825C24.0481 78.8198 24.2272 78.913 24.5038 79.0606C24.7259 79.1766 24.9079 79.2641 25.0512 79.32C25.1945 79.3758 25.4095 79.4575 25.6961 79.5636C25.9827 79.6711 26.1977 79.7513 26.341 79.8072C26.5187 79.8774 26.7824 79.9935 27.1292 80.1583C27.476 80.3217 27.7383 80.4392 27.9174 80.5094C28.0578 80.5639 28.1581 80.657 28.2169 80.7846C28.2757 80.9135 28.28 81.044 28.2269 81.1787C28.1739 81.3119 28.0822 81.4065 27.9518 81.4624C27.8199 81.5183 27.6852 81.5183 27.5434 81.4624H27.5462Z" fill="white"/>
<path d="M32.2825 87.5793C31.6534 87.4618 31.1834 87.231 30.8738 86.8828C30.613 86.5933 30.5098 86.2967 30.5671 85.9914C30.5958 85.8352 30.6674 85.7148 30.7807 85.6288C30.8939 85.5429 31.0329 85.5156 31.1991 85.5472C31.4227 85.5887 31.5646 85.7335 31.6262 85.9799C31.7107 86.311 32.0016 86.5231 32.5004 86.6148C32.926 86.6936 33.3559 86.6779 33.7887 86.5661C34.2373 86.4529 34.4838 86.2809 34.5253 86.053C34.5826 85.7406 34.4923 85.5113 34.253 85.3652C34.0825 85.2591 33.7228 85.1488 33.1725 85.0341C32.7454 84.9453 32.3771 84.7934 32.0661 84.5784C31.6462 84.2875 31.4757 83.9507 31.5545 83.5681C31.652 83.0865 31.9916 82.691 32.5734 82.3829C33.1553 82.0748 33.7529 81.9773 34.3648 82.0906C34.607 82.135 34.8965 82.2468 35.2333 82.4245C35.6503 82.6452 35.8423 82.8458 35.8094 83.0278C35.785 83.1568 35.7205 83.2628 35.6116 83.3445C35.4912 83.4377 35.3536 83.4692 35.1974 83.4405C35.0813 83.419 34.9122 83.3617 34.6887 83.27C34.4651 83.1783 34.296 83.1195 34.1771 83.098C33.8575 83.0407 33.5393 83.0622 33.2241 83.1596C32.8988 83.2585 32.7182 83.3975 32.6852 83.5781C32.668 83.6727 32.6981 83.7572 32.7784 83.8361C32.8572 83.9134 32.9847 83.9808 33.161 84.0395C33.4749 84.1155 33.7873 84.1915 34.0983 84.2674C34.64 84.4122 35.0455 84.6472 35.3164 84.9739C35.613 85.3365 35.7119 85.7807 35.6145 86.3053C35.4955 86.9444 35.0412 87.3614 34.253 87.5549C33.6511 87.7025 32.9948 87.7097 32.2811 87.5764L32.2825 87.5793Z" fill="white"/>
<path d="M40.3926 83.4503C40.3424 83.446 40.2909 83.4345 40.2364 83.4159C39.838 83.2755 39.4468 83.1909 39.0613 83.1623C38.8735 83.1479 38.67 83.1479 38.4508 83.1623C38.2315 83.1766 37.9994 83.2038 37.7514 83.2468C37.7271 83.5807 37.6783 84.0766 37.6067 84.7329C37.7486 84.7329 38.243 84.7229 39.0899 84.7028C39.5729 84.6914 39.8796 84.6899 40.0071 84.6985C40.1547 84.71 40.2794 84.7659 40.3768 84.8676C40.4743 84.9694 40.5187 85.0984 40.5073 85.2546C40.4858 85.5541 40.3124 85.7117 39.9913 85.7275C39.7893 85.7275 39.4869 85.7303 39.0856 85.7361C38.7259 85.7504 38.1842 85.759 37.4619 85.7633C37.4204 86.0815 37.3932 86.338 37.3788 86.5343C37.343 87.0273 37.3502 87.3096 37.4032 87.3813C37.429 87.4157 37.5852 87.4443 37.8747 87.4658C38.0309 87.4773 38.2659 87.4916 38.5798 87.5074C38.8936 87.5231 39.1301 87.536 39.2848 87.5489C39.335 87.5532 39.4095 87.5504 39.5084 87.5432C39.6073 87.536 39.6804 87.5332 39.7291 87.5375C39.8753 87.5489 39.9956 87.5991 40.0931 87.6894C40.2049 87.7911 40.2536 87.9258 40.2407 88.0949C40.2192 88.3758 40.0601 88.5335 39.762 88.5679C39.507 88.5965 38.9839 88.5822 38.1928 88.5234C37.3745 88.4632 36.8486 88.3128 36.6164 88.0734C36.3599 87.8098 36.2625 87.2723 36.3226 86.4598C36.347 86.123 36.4101 85.62 36.5089 84.9479C36.6078 84.2758 36.6695 83.7742 36.6938 83.4403C36.701 83.3529 36.6981 83.221 36.6852 83.0476C36.6723 82.8742 36.6695 82.7424 36.6766 82.6549C36.7053 82.2737 36.8944 82.0946 37.247 82.1218C37.3573 82.1304 37.4562 82.1691 37.5451 82.2394C37.8417 82.1878 38.1226 82.1534 38.3877 82.1376C38.6528 82.1204 38.9022 82.1204 39.1358 82.1376C39.7692 82.1849 40.2694 82.2952 40.6377 82.4686C40.8627 82.5733 40.9658 82.7424 40.9486 82.9731C40.9386 83.1035 40.8856 83.2153 40.7867 83.3099C40.6778 83.4174 40.5459 83.4661 40.3897 83.4546L40.3926 83.4503Z" fill="white"/>
<path d="M45.2868 88.2591C45.1507 88.2634 45.0246 88.2147 44.9085 88.1115C44.1246 87.4193 43.2719 86.9478 42.349 86.6985C42.3977 87.4308 42.425 87.8363 42.4264 87.9166C42.4307 88.0599 42.3834 88.1831 42.2859 88.2849C42.1885 88.3866 42.0638 88.4411 41.9133 88.4454C41.7629 88.4497 41.6353 88.4038 41.5307 88.3078C41.4275 88.2118 41.3731 88.0914 41.3688 87.9481C41.363 87.7589 41.3573 87.4766 41.3516 87.0997C41.3458 86.7228 41.3401 86.4405 41.3344 86.2513L41.2513 83.2032C41.247 83.0398 41.2914 82.8893 41.386 82.7532C41.5092 82.5783 41.6841 82.4967 41.9119 82.5067C42.5253 82.5339 42.8391 82.5482 42.8549 82.5511C43.2089 82.5841 43.5112 82.6586 43.762 82.7775C44.8526 83.2877 45.4101 83.9426 45.4344 84.7423C45.4445 85.0719 45.3399 85.3671 45.122 85.6265C44.9042 85.8859 44.5732 86.1095 44.1275 86.2972C44.8053 86.6497 45.3198 87.0152 45.668 87.3935C45.7583 87.491 45.807 87.6027 45.8099 87.726C45.8142 87.8664 45.7655 87.9897 45.6623 88.0957C45.5591 88.2018 45.4359 88.2562 45.2897 88.2591H45.2868ZM42.7245 83.5786C42.7044 83.5772 42.5568 83.5715 42.2816 83.5614L42.3404 85.5678C42.4035 85.5678 42.4593 85.5678 42.5066 85.5678C43.1229 85.5491 43.5786 85.4588 43.8709 85.2969C43.9971 85.2281 44.1131 85.1378 44.2163 85.026C44.3195 84.9143 44.3711 84.8311 44.3697 84.7753C44.3611 84.4929 44.1748 84.2264 43.8093 83.9756C43.4625 83.7391 43.0999 83.6073 42.7245 83.5801V83.5786Z" fill="white"/>
<path d="M48.5153 86.2679C48.7604 85.2676 48.9467 84.4722 49.0756 83.8818C49.1444 83.5694 49.2118 83.257 49.2763 82.9417C49.3737 82.5662 49.4941 82.2724 49.6374 82.056C49.732 81.9127 49.8581 81.831 50.0143 81.8096C50.1562 81.7895 50.288 81.821 50.4084 81.9056C50.5288 81.9887 50.6004 82.1019 50.6191 82.2438C50.6334 82.3441 50.6133 82.4473 50.5589 82.5533C50.4514 82.7669 50.3611 83.0191 50.2866 83.3086C50.2823 83.32 50.225 83.5794 50.1132 84.0882C49.9684 84.6958 49.7549 85.6072 49.4712 86.8211C49.3981 87.1392 49.2992 87.4602 49.1745 87.7855C49.0943 87.9948 48.9524 88.1137 48.7475 88.1424C48.4881 88.1782 48.2903 88.0807 48.1542 87.8514C47.7486 87.1679 47.2642 86.1676 46.7024 84.852C46.5534 84.5296 46.4029 84.2071 46.251 83.8847C46.0461 83.4347 45.93 83.1194 45.9056 82.9374C45.8856 82.7898 45.9228 82.6608 46.0189 82.5476C46.1106 82.443 46.2267 82.3814 46.3671 82.3613C46.6064 82.3283 46.7913 82.4301 46.9203 82.6651C47.0005 82.8758 47.0808 83.0836 47.1596 83.2914C47.28 83.5493 47.4548 83.9377 47.6841 84.455C47.9779 85.1415 48.2545 85.7448 48.5124 86.2665L48.5153 86.2679Z" fill="white"/>
<path d="M54.2399 82.1802C54.1224 82.2088 53.7928 82.2533 53.2496 82.3134C53.3256 82.772 53.4546 83.3739 53.638 84.1206L54.0378 85.7686C54.3617 85.6812 54.6928 85.5966 55.0295 85.5135C55.1757 85.4777 55.3104 85.4963 55.4308 85.5708C55.5512 85.6454 55.6286 85.75 55.6615 85.8876C55.6945 86.0251 55.6744 86.1541 55.5999 86.2745C55.5254 86.3949 55.4122 86.4737 55.2617 86.5109C55.1213 86.5453 54.912 86.5998 54.634 86.6743C54.356 86.7488 54.1468 86.8033 54.0063 86.8377C53.8415 86.8778 53.5993 86.9595 53.2797 87.0842C52.9602 87.2074 52.718 87.2906 52.5532 87.3307C52.4027 87.3679 52.2665 87.3493 52.1447 87.2777C52.0229 87.2046 51.9441 87.1 51.9111 86.9638C51.8782 86.8277 51.9011 86.6973 51.9799 86.574C52.0587 86.4508 52.1777 86.3705 52.3339 86.3318C52.5116 86.2888 52.7409 86.2129 53.0232 86.104C52.9473 85.8159 52.8097 85.2642 52.6091 84.4473C52.4457 83.7824 52.3153 83.1403 52.215 82.5241L51.4239 82.7419C51.2777 82.7778 51.143 82.7606 51.0198 82.6889C50.8965 82.6173 50.8191 82.5112 50.7833 82.3693C50.7475 82.2246 50.7661 82.0956 50.8392 81.9824C50.9065 81.8778 51.0026 81.8033 51.1272 81.7603C51.3307 81.6901 51.6919 81.5912 52.2078 81.4636C52.6721 81.3504 53.284 81.2544 54.0421 81.177C54.3445 81.1469 54.5308 81.2802 54.6039 81.5768C54.6426 81.733 54.6168 81.8706 54.5251 81.9896C54.4506 82.0884 54.356 82.1515 54.2385 82.1802H54.2399Z" fill="white"/>
<path d="M58.9083 81.0883C58.6948 81.1628 58.4971 81.1055 58.3151 80.9163C58.2305 80.8261 58.1603 80.7788 58.1044 80.7745C58.0628 80.7702 57.9654 80.7945 57.8135 80.849C57.514 80.955 57.2503 81.309 57.0224 81.9123C56.7028 82.7564 56.6426 83.4629 56.8418 84.0304C56.9336 84.2898 57.0984 84.4804 57.3363 84.6051C57.5756 84.7298 57.8149 84.7484 58.0585 84.6639C58.2936 84.5807 58.5114 84.436 58.7091 84.2268C58.7794 84.1508 58.9184 83.9717 59.1276 83.6865C59.2695 83.4973 59.3884 83.387 59.483 83.3526C59.6263 83.3024 59.7653 83.3125 59.9015 83.3813C60.029 83.4457 60.1136 83.5418 60.158 83.6679C60.2067 83.8083 60.1881 83.9516 60.1021 84.1007C59.6421 84.8817 59.0746 85.3919 58.3967 85.6298C57.8622 85.8175 57.342 85.7817 56.8361 85.5223C56.3517 85.2701 56.0207 84.8903 55.8415 84.3815C55.5621 83.5862 55.6237 82.6504 56.0278 81.5756C56.3718 80.6641 56.8533 80.0995 57.471 79.8817C57.5756 79.8444 57.6716 79.8157 57.7576 79.7928C57.845 79.7699 57.9224 79.7555 57.9912 79.7469C58.06 79.6079 58.1674 79.5134 58.3151 79.4603C58.5572 79.3758 58.7564 79.4603 58.9112 79.7197C59.0216 79.9046 59.1233 80.131 59.2179 80.3976C59.2595 80.5165 59.2638 80.6369 59.2294 80.7587C59.1835 80.9192 59.076 81.0281 58.9055 81.0898L58.9083 81.0883Z" fill="white"/>
<path d="M62.8671 78.3734C62.8212 78.3949 62.771 78.4107 62.7137 78.4207C62.2981 78.4952 61.9155 78.6156 61.5672 78.7804C61.3967 78.8606 61.219 78.9624 61.037 79.0813C60.8536 79.2017 60.6658 79.3407 60.4709 79.4998C60.6142 79.8022 60.8177 80.2565 61.08 80.8627C61.2032 80.7939 61.6289 80.5402 62.3554 80.1031C62.7696 79.8538 63.0347 79.7019 63.1508 79.6474C63.2855 79.5844 63.4202 79.5715 63.5564 79.6116C63.6925 79.6517 63.7943 79.742 63.8602 79.8839C63.9892 80.1547 63.9175 80.3768 63.6452 80.5502C63.4689 80.6506 63.2081 80.8025 62.8613 81.0045C62.5546 81.1937 62.0889 81.4689 61.4626 81.83C61.583 82.1266 61.6862 82.3631 61.7707 82.5408C61.9814 82.9865 62.129 83.2287 62.2107 83.2645C62.2494 83.2817 62.3999 83.2287 62.6621 83.1054C62.804 83.0381 63.0147 82.9349 63.2955 82.793C63.5764 82.6511 63.7885 82.5465 63.929 82.4806C63.9748 82.4591 64.0379 82.4204 64.121 82.3645C64.2027 82.3086 64.2657 82.2714 64.3087 82.2499C64.4406 82.1868 64.571 82.1711 64.7 82.2026C64.8461 82.2356 64.9565 82.3287 65.0281 82.482C65.1485 82.7371 65.0883 82.9521 64.8447 83.1284C64.6369 83.2788 64.1755 83.5253 63.4589 83.865C62.7166 84.2161 62.1849 84.3451 61.8653 84.2519C61.5128 84.1487 61.1617 83.7288 60.8134 82.9937C60.6687 82.6884 60.4738 82.2198 60.2287 81.5878C59.9837 80.9558 59.7888 80.4886 59.6455 80.1848C59.6082 80.1046 59.5409 79.9928 59.4434 79.848C59.3474 79.7033 59.28 79.5901 59.2413 79.5113C59.078 79.1645 59.1554 78.9165 59.4735 78.7661C59.5738 78.7188 59.6799 78.703 59.7902 78.7202C60.0224 78.5296 60.2502 78.3605 60.4724 78.2143C60.6945 78.0681 60.9123 77.9449 61.123 77.8446C61.6962 77.5723 62.1863 77.4218 62.5933 77.3903C62.8398 77.3702 63.0132 77.4663 63.1121 77.6755C63.168 77.7944 63.1766 77.9177 63.1379 78.0481C63.0963 78.1957 63.0046 78.3032 62.8642 78.3705L62.8671 78.3734Z" fill="white"/>
<path d="M67.8247 81.3691C67.2802 81.7044 66.7757 81.8478 66.3143 81.799C65.9259 81.7603 65.6508 81.6084 65.4888 81.3447C65.4057 81.21 65.377 81.0725 65.4043 80.9334C65.4315 80.7944 65.516 80.6798 65.6594 80.5924C65.8528 80.4734 66.0549 80.4849 66.267 80.6268C66.5522 80.8145 66.9104 80.7758 67.3404 80.5107C67.7087 80.2828 68.0168 79.9833 68.2633 79.6093C68.5198 79.2238 68.5871 78.9314 68.4653 78.7351C68.2991 78.4642 68.077 78.3553 67.8018 78.4069C67.604 78.4427 67.2644 78.6032 66.7786 78.887C66.4017 79.1077 66.0262 79.2424 65.6522 79.2926C65.1463 79.3585 64.7938 79.2238 64.5946 78.8884C64.3438 78.4657 64.3295 77.9455 64.5544 77.3264C64.7794 76.7073 65.1563 76.2344 65.6866 75.9076C65.8972 75.7786 66.1853 75.6669 66.5536 75.5723C67.0122 75.4562 67.2888 75.4763 67.3848 75.6325C67.4536 75.7442 67.4751 75.8661 67.4507 75.9993C67.4249 76.1484 67.3432 76.2645 67.2085 76.349C67.1082 76.4106 66.9434 76.4823 66.717 76.564C66.4905 76.6442 66.3257 76.7173 66.2226 76.7804C65.9474 76.9538 65.7253 77.1816 65.5576 77.4654C65.3828 77.7577 65.3426 77.9813 65.4387 78.1375C65.4888 78.2192 65.5691 78.2622 65.6794 78.2665C65.7898 78.2708 65.9302 78.2349 66.1007 78.1604C66.3845 78.0057 66.6668 77.8523 66.9491 77.7004C67.4478 77.4439 67.9064 77.345 68.3263 77.4066C68.7892 77.4768 69.1618 77.7377 69.4413 78.1934C69.7823 78.7466 69.725 79.3599 69.2707 80.0335C68.9239 80.5465 68.441 80.9936 67.8247 81.3734V81.3691Z" fill="white"/>
<path d="M19.97 44.325C20.0187 44.2906 20.0717 44.2605 20.1161 44.2204C21.1996 43.2531 22.4879 42.7042 23.8909 42.4061C24.7923 42.2155 25.7023 42.1582 26.6224 42.2915C28.6774 42.5896 30.1606 43.6472 30.9818 45.5675C31.4375 46.6337 31.6654 47.7601 31.6597 48.9224C31.6511 50.6019 31.0922 52.0838 29.9958 53.3592C29.1088 54.3896 28.0139 55.1391 26.7929 55.7166C25.4874 56.3357 24.113 56.6668 22.6699 56.7699C21.35 56.8645 20.0302 56.8731 18.7117 56.8344C16.8716 56.7785 15.0674 56.4919 13.3233 55.8786C9.66323 54.5917 7.14386 52.1096 5.67065 48.5426C5.13468 47.2457 4.79933 45.8928 4.62306 44.4999C4.52705 43.7446 4.46543 42.9865 4.45396 42.2256C4.41813 39.7664 4.91398 37.4176 5.90138 35.1662C6.47031 33.8692 7.17396 32.6468 7.90626 31.4387C9.06993 29.5184 10.417 27.7356 11.9447 26.0962C14.3652 23.4994 17.1138 21.314 20.2236 19.5857C23.8579 17.565 27.7 16.1147 31.7671 15.2535C33.1959 14.9511 34.6347 14.7132 36.0836 14.5441C37.8893 14.3334 39.7036 14.2274 41.5221 14.2059C43.0613 14.1872 44.5975 14.2245 46.1338 14.3091C47.1269 14.3635 48.1172 14.4409 49.106 14.5469C50.5105 14.6974 51.9077 14.9009 53.2978 15.1603C55.1752 15.51 57.0267 15.9628 58.851 16.526C61.9794 17.4934 64.9259 18.862 67.739 20.5315C69.3355 21.4788 70.8101 22.5837 72.2088 23.7961C72.4438 23.9996 72.6789 24.2016 72.9225 24.3965C73.7623 25.0687 74.5261 25.8182 75.2169 26.6422C75.2971 26.7368 75.3788 26.8314 75.4662 26.9188C77.0526 28.5367 78.3395 30.3811 79.5376 32.2914C80.396 33.66 81.1684 35.0759 81.7804 36.5749C82.2633 37.7572 82.6302 38.9739 82.8251 40.235C82.9913 41.3113 83.0429 42.3947 82.9641 43.4867C82.8323 45.3311 82.441 47.1109 81.6786 48.7963C79.8973 52.7315 76.948 55.4243 72.9139 56.9333C71.2845 57.5438 69.5891 57.8304 67.8508 57.829C65.6266 57.8276 63.5114 57.336 61.5166 56.3472C60.7785 55.9817 60.0634 55.5776 59.3942 55.0932C58.7736 54.6447 58.2162 54.1288 57.7389 53.5312C56.8433 52.4091 56.0723 51.2124 55.5936 49.8467C55.3457 49.1388 55.1823 48.4151 55.1737 47.6627C55.1565 46.3013 55.6352 45.1448 56.6312 44.2104C57.6429 43.2602 58.8381 42.6641 60.1938 42.4018C61.5051 42.1482 62.7891 42.2843 64.0431 42.7343C64.9101 43.0453 65.7212 43.4637 66.4679 44.004C66.7444 44.2046 67.021 44.4038 67.2933 44.6002C67.3535 44.5601 67.3406 44.5185 67.322 44.4798C66.786 43.3763 66.2457 42.2771 65.5937 41.2353C64.1993 39.0068 62.2446 37.4734 59.7897 36.562C58.9829 36.2625 58.1459 36.0977 57.2875 36.0748C56.1024 36.0432 54.9788 36.3184 53.9126 36.8329C53.2247 37.1653 52.5927 37.5867 51.998 38.0667C51.6039 38.3849 51.3259 38.7962 51.0679 39.2232C50.6337 39.9427 50.2869 40.7051 49.9745 41.4832C49.3726 42.9837 48.8896 44.5214 48.5787 46.1092C48.1616 48.2302 48.2935 50.3096 49.1032 52.3288C49.5646 53.481 50.2339 54.5028 51.0808 55.4071C52.5039 56.9276 54.1964 58.0569 56.1196 58.845C56.7429 59.1001 57.3907 59.2377 58.0628 59.2807C58.8682 59.3323 59.6736 59.3896 60.479 59.4627C61.0508 59.5143 61.6126 59.6275 62.1614 59.8081C63.4827 60.2423 64.3598 61.1208 64.7711 62.4435C65.4934 64.7709 65.105 66.889 63.5214 68.7649C62.8952 69.5058 62.1586 70.122 61.3575 70.6666C60.0663 71.5436 58.6676 72.21 57.2187 72.7761C55.4245 73.4768 53.5887 74.0444 51.6985 74.4241C50.7698 74.6104 49.834 74.7466 48.8925 74.854C46.6469 75.112 44.3941 75.0848 42.1427 74.9959C40.9489 74.9486 39.7551 74.8526 38.5657 74.7279C36.0005 74.4585 33.4653 74.0214 30.9933 73.2576C29.2678 72.7245 27.6055 72.0452 26.0549 71.1108C24.5501 70.2051 23.2216 69.0973 22.1511 67.6944C21.8488 67.2988 21.5736 66.8861 21.3242 66.4562C20.9101 65.7425 20.8026 64.9715 20.8914 64.1632C21.0477 62.7387 21.7699 61.6682 22.9522 60.8915C23.7533 60.3656 24.6332 60.0331 25.5662 59.8267C26.2942 59.6662 27.0322 59.5573 27.7703 59.4613C30.7582 59.0743 33.2446 57.733 35.2925 55.5447C36.2943 54.4727 37.1527 53.3019 37.8305 51.9935C38.2089 51.2612 38.4295 50.5031 38.4553 49.679C38.5012 48.2345 38.5356 46.7885 38.3708 45.3497C38.1759 43.6586 37.799 42.0178 37.0036 40.4944C36.8317 40.1633 36.6368 39.8466 36.4333 39.5342C35.6107 38.2717 34.4585 37.4505 33.0397 36.9819C31.6453 36.5204 30.2194 36.4115 28.7634 36.5921C26.9004 36.8228 25.2265 37.5136 23.7548 38.6715C22.9092 39.3365 22.1741 40.1189 21.565 41.0103C21.0204 41.8057 20.5375 42.6369 20.1677 43.5297C20.0846 43.7303 20.0144 43.9352 19.9413 44.1402C19.9213 44.1961 19.9155 44.2577 19.9685 44.3222L19.97 44.325Z" fill="white"/>
<path d="M5.62571 22.0579C5.77762 21.9375 5.81918 21.767 5.88367 21.6108C6.18462 20.8742 6.36805 20.1075 6.48413 19.3222C6.56008 18.8106 6.47267 18.3448 6.16312 17.912C5.74752 17.3316 5.36202 16.7312 4.96219 16.1393C4.74437 15.8154 4.57383 15.4686 4.49501 15.0831C4.42622 14.7435 4.43625 14.4081 4.5294 14.0713C4.74007 13.319 5.51536 12.7113 6.51279 13.0811C6.76215 13.1728 6.98714 13.3089 7.19494 13.4752C7.55035 13.7604 7.83696 14.1043 8.09062 14.4783C8.33568 14.838 8.53201 15.2264 8.72978 15.6119C8.86448 15.8742 8.98916 16.1407 9.13391 16.3972C9.23279 16.5721 9.34313 16.744 9.47498 16.8945C9.83182 17.3058 10.2159 17.3144 10.5914 16.9289C10.6888 16.83 10.7734 16.7168 10.8593 16.6065C10.984 16.4474 11.103 16.2855 11.2291 16.1278C11.3466 15.9816 11.4813 15.8541 11.6375 15.7495C11.9385 15.5489 12.2609 15.4958 12.6134 15.6019C13.4776 15.8627 13.8846 16.5463 13.704 17.4276C13.6281 17.8002 13.4747 18.137 13.2569 18.4423C12.5962 19.3723 11.702 19.9384 10.5727 20.1247C10.3592 20.1605 10.1428 20.1835 9.9264 20.2021C9.5452 20.235 9.29441 20.4084 9.18836 20.7939C9.04935 21.3013 8.89028 21.8043 8.73551 22.3073C8.5707 22.8404 8.39157 23.3706 8.12358 23.8622C7.99747 24.0929 7.85989 24.3208 7.70225 24.53C7.20497 25.1878 6.53142 25.4156 5.72889 25.2953C5.18432 25.2136 4.68418 25.0129 4.21842 24.7192C3.74264 24.4182 3.31558 24.0585 2.93724 23.6458C1.60448 22.1912 0.680135 20.5045 0.116933 18.6171C0.00945153 18.2588 -0.0550373 17.8948 0.0596095 17.5179C0.228714 16.9633 0.585552 16.6022 1.14875 16.4861C1.73345 16.3643 2.2207 16.5534 2.56464 17.0593C2.75668 17.3431 2.91288 17.6469 3.05189 17.9579C3.25969 18.4251 3.45745 18.8965 3.65952 19.3666C3.9619 20.0688 4.356 20.7166 4.81459 21.3256C4.945 21.499 5.0969 21.6552 5.24738 21.8114C5.35343 21.9218 5.47524 22.0164 5.62571 22.0536V22.0579Z" fill="white"/>
<path d="M49.0869 5.75794C48.9866 5.74074 48.9579 5.8038 48.925 5.85109C48.8032 6.03023 48.6857 6.21366 48.5653 6.39423C48.4449 6.5748 48.3274 6.75823 48.2027 6.93594C47.6481 7.72127 46.3655 7.84738 45.6805 7.06061C45.5486 6.90871 45.4197 6.7525 45.2892 6.59773C45.1918 6.48308 45.1101 6.35124 44.9811 6.27098C44.8737 6.32401 44.9095 6.41143 44.9095 6.48022C44.9109 7.14803 44.9066 7.81585 44.9281 8.48367C44.9367 8.73589 44.8421 8.89783 44.6458 9.02537C44.1886 9.32059 43.7 9.38938 43.1769 9.23747C42.906 9.15865 42.7154 8.99528 42.5936 8.74162C42.4388 8.41918 42.3185 8.0824 42.2196 7.7399C41.8154 6.34837 41.5804 4.92818 41.4901 3.4822C41.4629 3.04511 41.4944 2.61089 41.569 2.18239C41.7223 1.30248 42.4001 0.855356 42.992 0.776536C43.3431 0.729244 43.6742 0.779402 43.9823 0.947073C44.1456 1.03592 44.299 1.14484 44.4437 1.25949C45.1158 1.79116 45.7306 2.38302 46.2695 3.05084C46.4042 3.21851 46.526 3.40052 46.7295 3.52663C46.7926 3.44494 46.8513 3.37615 46.9029 3.30163C47.3973 2.58652 47.8803 1.86425 48.3346 1.12191C48.4478 0.937042 48.5681 0.75504 48.7 0.58307C49.3219 -0.232356 50.6562 -0.20656 51.2294 0.749308C51.4974 1.19643 51.6306 1.68941 51.7138 2.19672C51.8212 2.84018 51.8599 3.49223 51.9029 4.14285C51.9388 4.68456 51.9818 5.22627 52.0276 5.76797C52.0978 6.5877 52.1752 7.40742 52.2497 8.22715C52.2798 8.55532 52.2497 8.88063 52.1767 9.19878C52.0563 9.73475 51.7353 10.0658 51.1821 10.1747C50.6318 10.2822 50.1632 10.1718 49.8063 9.72185C49.6401 9.51262 49.5441 9.269 49.4667 9.01248C49.2804 8.39625 49.2589 7.75853 49.2188 7.12367C49.1887 6.66365 49.1471 6.2065 49.0869 5.75651V5.75794Z" fill="white"/>
<path d="M54.613 7.22221C54.5987 6.49133 54.6746 5.76619 54.7635 5.04248C54.8108 4.65698 54.8394 4.27005 54.8882 3.88598C54.9168 3.65526 54.9498 3.4231 55.0157 3.20097C55.2106 2.55035 55.7967 2.17345 56.4832 2.23507C57.1782 2.29812 57.7171 2.80544 57.7773 3.48329C57.8274 4.04076 57.7902 4.59966 57.73 5.15713C57.6354 6.03704 57.5408 6.91696 57.5795 7.80404C57.5895 8.03906 57.6239 8.26692 57.6884 8.49192C57.7314 8.64239 57.793 8.78283 57.8862 8.91038C57.9722 9.02789 58.0424 9.05082 58.1613 8.98347C58.2688 8.92184 58.3749 8.85592 58.4738 8.7814C59.2734 8.17951 59.9685 7.47586 60.5431 6.6547C60.8426 6.22764 61.0347 5.76189 61.0562 5.23022C61.0676 4.96653 61.1063 4.70427 61.1407 4.44345C61.1594 4.30588 61.188 4.1683 61.2267 4.03502C61.3972 3.44173 61.8945 3.01037 62.4377 2.95878C63.1298 2.89142 63.7031 3.34284 63.9123 3.81576C64.1617 4.3804 64.2491 4.97226 64.1703 5.58849C64.0785 6.30503 63.8507 6.97858 63.5082 7.61057C62.5867 9.31451 61.2912 10.6659 59.636 11.6719C59.2763 11.8912 58.8908 12.0445 58.4709 12.1176C57.7629 12.2409 57.1138 12.0904 56.5104 11.7192C55.9143 11.3524 55.4729 10.8407 55.1662 10.2102C54.828 9.51657 54.666 8.77854 54.6159 8.01327C54.5987 7.75101 54.613 7.48589 54.613 7.22221Z" fill="white"/>
<path d="M17.7675 12.4257C18.0469 12.2021 18.2662 11.9642 18.4725 11.712C18.7463 11.3752 19.0243 11.0399 19.3095 10.7117C19.5044 10.4896 19.7236 10.2904 19.9787 10.137C20.5133 9.81316 21.0507 9.84182 21.5551 10.1829C22.051 10.5182 22.2344 11.0112 22.1627 11.6002C22.1455 11.7421 22.0839 11.8682 22.0094 11.9871C21.9435 12.0918 21.8704 12.1935 21.7873 12.2852C21.1925 12.9416 20.668 13.6567 20.1077 14.3417C19.7437 14.7874 19.3668 15.2202 18.9225 15.5899C18.6947 15.7791 18.451 15.9439 18.1816 16.0686C17.9079 16.1947 17.6213 16.242 17.3203 16.2276C16.9477 16.209 16.6267 16.0772 16.3616 15.8121C16.1524 15.6028 15.9718 15.3707 15.8027 15.1285C15.4287 14.5925 15.1134 14.0221 14.8124 13.4446C14.5846 13.0046 14.3725 12.5547 14.1504 12.1104C13.8537 11.5128 13.5571 10.9166 13.2561 10.3219C12.9824 9.78163 12.7144 9.23992 12.6041 8.6366C12.5697 8.45173 12.5568 8.26543 12.5883 8.08056C12.6872 7.49013 13.1802 7.03871 13.8064 6.97278C14.4312 6.90686 14.9314 7.11323 15.2739 7.66353C15.5204 8.05906 15.7282 8.47609 15.9259 8.89598C16.2957 9.68131 16.6583 10.4709 17.0309 11.2548C17.1498 11.5071 17.2874 11.7507 17.425 11.9929C17.5095 12.1405 17.5926 12.291 17.7646 12.4242L17.7675 12.4257Z" fill="white"/>
<path d="M24.0332 6.99457C24.0088 6.99457 23.8842 7.0089 23.7609 7.00603C23.0859 6.99743 22.5485 6.53168 22.4367 5.8653C22.3307 5.22757 22.5671 4.74606 23.1461 4.43938C23.3095 4.35196 23.48 4.276 23.652 4.20578C23.8956 4.1069 24.0662 3.95069 24.1536 3.69417C24.2138 3.51934 24.3141 3.35883 24.3986 3.19402C24.6423 2.71537 25.2026 2.47032 25.7357 2.55487C25.9335 2.5864 26.1327 2.63512 26.319 2.70678C26.7618 2.87875 27.1931 2.86871 27.6274 2.68385C27.8122 2.60503 28.0028 2.53337 28.1977 2.49181C28.8068 2.35997 29.3313 2.58783 29.6308 3.09801C29.9332 3.61249 29.8859 4.25451 29.5033 4.70593C29.2897 4.95672 29.0275 5.15162 28.738 5.30496C28.5331 5.41387 28.3181 5.50272 28.1089 5.60304C27.7807 5.76068 27.7291 5.87103 27.8151 6.23073C27.9011 6.5933 28.0444 6.93724 28.1848 7.28118C28.4614 7.95473 28.7466 8.62398 29.0189 9.29897C29.1694 9.673 29.294 10.0542 29.3858 10.4483C29.4402 10.6819 29.3929 10.8754 29.2668 11.0631C29.092 11.3253 28.8699 11.5403 28.609 11.7137C28.1476 12.0175 27.6761 12.0089 27.2075 11.7309C26.9223 11.5618 26.7102 11.3139 26.5239 11.043C26.2143 10.5916 25.9922 10.0972 25.8088 9.58702C25.6067 9.01808 25.429 8.44055 25.237 7.86732C25.1539 7.61796 25.0736 7.36574 24.9389 7.13644C24.8615 7.0046 24.7469 6.93438 24.5935 6.94298C24.4388 6.95157 24.284 6.9702 24.0318 6.99457H24.0332Z" fill="white"/>
<path d="M71.2528 10.6955C70.9691 10.7027 70.6982 10.6382 70.4331 10.5436C70.1852 10.4562 69.9401 10.3587 69.6936 10.267C69.5775 10.224 69.4629 10.1753 69.3425 10.1452C69.1462 10.0965 68.9713 10.1366 68.8524 10.3172C68.7492 10.4719 68.6446 10.6253 68.5514 10.7872C68.2204 11.3662 67.8965 11.9494 67.5683 12.5298C67.4465 12.7462 67.3247 12.9626 67.1943 13.1733C67.1055 13.318 67.0051 13.457 66.902 13.5932C66.323 14.3599 65.5004 14.261 64.9042 13.93C64.5675 13.7437 64.4012 13.4398 64.3912 13.0486C64.384 12.7634 64.4456 12.4954 64.5359 12.2289C64.652 11.8892 64.8111 11.5711 64.9902 11.2616C65.3958 10.5636 65.8056 9.87003 66.2112 9.17355C66.2814 9.05317 66.3574 8.93279 66.4032 8.80238C66.5122 8.4914 66.5064 8.19762 66.2528 7.93966C66.012 7.69604 65.8028 7.42519 65.6365 7.12424C65.4918 6.86342 65.3972 6.58826 65.4101 6.28158C65.4173 6.10531 65.4588 5.93908 65.5549 5.7972C65.8458 5.36298 66.2599 5.10502 66.7701 5.01187C67.0911 4.95311 67.3892 5.0434 67.6472 5.2383C67.8077 5.36011 67.9596 5.49339 68.1043 5.63383C68.9928 6.49798 70.006 7.17439 71.1367 7.68027C71.4477 7.81928 71.7558 7.96689 72.0568 8.1274C72.3864 8.30367 72.5899 8.58598 72.7145 8.93852C72.9037 9.47306 72.6931 10.1022 72.2187 10.4146C71.9249 10.6081 71.6025 10.7027 71.2514 10.6941L71.2528 10.6955Z" fill="white"/>
<path d="M72.4863 17.9092C72.4763 17.5409 72.6612 17.2041 72.9062 16.896C73.2445 16.4704 73.6027 16.0634 73.9997 15.6922C74.1817 15.5231 74.3608 15.3526 74.5328 15.1734C74.6388 15.0617 74.7392 14.9413 74.8237 14.8123C74.9814 14.5744 74.9943 14.3164 74.8796 14.0585C74.7979 13.8751 74.6962 13.7002 74.6045 13.5211C74.4411 13.2029 74.3035 12.8748 74.2261 12.5251C74.067 11.8157 74.3307 11.3141 75.0057 11.0375C75.6922 10.7567 76.2324 10.8756 76.7154 11.4431C76.906 11.6667 77.0722 11.9132 77.2284 12.1611C77.7845 13.041 78.5082 13.7532 79.3752 14.3222C79.6475 14.5013 79.9183 14.6819 80.1534 14.9097C80.5532 15.2967 80.7008 15.7768 80.5962 16.3113C80.44 17.111 79.7965 17.4449 79.1359 17.3761C78.716 17.3331 78.319 17.2027 77.9579 16.9748C77.8404 16.9003 77.72 16.8286 77.6053 16.7498C77.3646 16.585 77.1396 16.6223 76.9232 16.7971C76.7054 16.9734 76.5176 17.1812 76.3442 17.4004C75.9487 17.9006 75.4973 18.3477 75.0516 18.802C74.8208 19.0385 74.5543 19.2147 74.2276 19.3022C73.3419 19.5386 72.4735 18.8708 72.4835 17.9106L72.4863 17.9092Z" fill="white"/>
<path d="M38.6955 7.55523C38.6955 7.91207 38.6926 8.2689 38.5565 8.60854C38.287 9.28209 37.4902 9.64753 36.8325 9.39817C36.5759 9.30072 36.3853 9.12589 36.2291 8.90663C36.0185 8.61284 35.888 8.2818 35.782 7.94073C35.6387 7.48214 35.5384 7.01209 35.461 6.53774C35.3277 5.71085 35.1027 4.90402 34.9035 4.09146C34.8032 3.68303 34.7416 3.2703 34.6871 2.85614C34.6413 2.51363 34.6728 2.17399 34.7559 1.84008C34.9279 1.1479 35.6344 0.656354 36.3352 0.740906C36.6762 0.782466 36.9442 0.958735 37.1506 1.22816C37.3326 1.46461 37.4515 1.7326 37.5533 2.01062C37.721 2.46347 37.8256 2.93353 37.9001 3.40645C38.0291 4.219 38.2254 5.0158 38.4232 5.81259C38.5651 6.38583 38.6854 6.96193 38.694 7.55523H38.6955Z" fill="white"/>
</g>
<defs>
<clipPath id="clip0_6263_371">
<rect width="83" height="88.579" fill="white"/>
</clipPath>
</defs>
</svg>
