<svg width="31" height="31" viewBox="0 0 31 31" fill="none" xmlns="http://www.w3.org/2000/svg">
<g clip-path="url(#clip0_6263_397)">
<path d="M7.8255 30.751C6.63185 30.7377 5.44942 30.5188 4.33012 30.1039C3.51276 29.8018 2.77325 29.3208 2.16566 28.6961C1.53931 28.0897 1.05762 27.35 0.756379 26.532C0.341809 25.4127 0.123194 24.2304 0.110129 23.0369C0.0184556 21.0528 0 20.4576 0 15.4301C0 10.4026 0.020271 9.80963 0.109221 7.82399C0.123871 6.63096 0.342755 5.44925 0.756379 4.33012C1.05909 3.51262 1.5401 2.77282 2.16445 2.16445C2.77129 1.53867 3.51114 1.05742 4.32921 0.756379C5.44851 0.341465 6.63094 0.122542 7.82459 0.109221C9.80933 0.0184556 10.4054 0 15.4301 0C20.4549 0 21.0506 0.020271 23.0363 0.109221C24.2296 0.123768 25.4116 0.342653 26.5311 0.756379C27.3488 1.05782 28.0884 1.5389 28.6955 2.16415C29.321 2.77145 29.8022 3.51129 30.1039 4.32921C30.5189 5.44849 30.7379 6.63092 30.7513 7.82459C30.8421 9.81024 30.8606 10.4047 30.8606 15.4307C30.8606 20.4567 30.8421 21.0512 30.7513 23.0369C30.7369 24.2304 30.5179 25.4125 30.1039 26.532C29.7907 27.3438 29.311 28.081 28.6956 28.6962C28.0803 29.3114 27.3429 29.7909 26.5311 30.1039C25.4118 30.5189 24.2293 30.7379 23.0357 30.7513C21.0518 30.8421 20.4555 30.8606 15.4295 30.8606C10.4035 30.8606 9.80903 30.843 7.8252 30.7513" fill="url(#paint0_radial_6263_397)"/>
<path d="M7.8255 30.751C6.63185 30.7377 5.44942 30.5188 4.33012 30.1039C3.51276 29.8018 2.77325 29.3208 2.16566 28.6961C1.53931 28.0897 1.05762 27.35 0.756379 26.532C0.341809 25.4127 0.123194 24.2304 0.110129 23.0369C0.0184556 21.0528 0 20.4576 0 15.4301C0 10.4026 0.020271 9.80963 0.109221 7.82399C0.123871 6.63096 0.342755 5.44925 0.756379 4.33012C1.05909 3.51262 1.5401 2.77282 2.16445 2.16445C2.77129 1.53867 3.51114 1.05742 4.32921 0.756379C5.44851 0.341465 6.63094 0.122542 7.82459 0.109221C9.80933 0.0184556 10.4054 0 15.4301 0C20.4549 0 21.0506 0.020271 23.0363 0.109221C24.2296 0.123768 25.4116 0.342653 26.5311 0.756379C27.3488 1.05782 28.0884 1.5389 28.6955 2.16415C29.321 2.77145 29.8022 3.51129 30.1039 4.32921C30.5189 5.44849 30.7379 6.63092 30.7513 7.82459C30.8421 9.81024 30.8606 10.4047 30.8606 15.4307C30.8606 20.4567 30.8421 21.0512 30.7513 23.0369C30.7369 24.2304 30.5179 25.4125 30.1039 26.532C29.7907 27.3438 29.311 28.081 28.6956 28.6962C28.0803 29.3114 27.3429 29.7909 26.5311 30.1039C25.4118 30.5189 24.2293 30.7379 23.0357 30.7513C21.0518 30.8421 20.4555 30.8606 15.4295 30.8606C10.4035 30.8606 9.80903 30.843 7.8252 30.7513" fill="url(#paint1_radial_6263_397)"/>
<path d="M11.6417 15.4962C11.6418 14.7404 11.866 14.0015 12.2859 13.3731C12.7059 12.7447 13.3028 12.2549 14.0012 11.9657C14.6995 11.6766 15.4679 11.601 16.2092 11.7485C16.9505 11.896 17.6314 12.2601 18.1658 12.7946C18.7002 13.3291 19.0641 14.0101 19.2114 14.7515C19.3588 15.4928 19.283 16.2612 18.9937 16.9594C18.7043 17.6577 18.2144 18.2545 17.5859 18.6743C16.9574 19.0941 16.2185 19.3182 15.4626 19.318C14.4492 19.3179 13.4772 18.9151 12.7607 18.1984C12.0441 17.4817 11.6416 16.5097 11.6417 15.4962ZM9.57559 15.4962C9.57559 16.6606 9.92086 17.7988 10.5677 18.7669C11.2146 19.735 12.134 20.4896 13.2098 20.9351C14.2855 21.3807 15.4692 21.4973 16.6111 21.2701C17.7531 21.043 18.8021 20.4823 19.6254 19.659C20.4487 18.8357 21.0094 17.7867 21.2366 16.6447C21.4637 15.5027 21.3471 14.319 20.9016 13.2433C20.456 12.1676 19.7014 11.2482 18.7333 10.6013C17.7652 9.95443 16.627 9.60916 15.4626 9.60916C14.6895 9.60912 13.924 9.76137 13.2097 10.0572C12.4954 10.353 11.8464 10.7867 11.2998 11.3333C10.7531 11.88 10.3195 12.529 10.0236 13.2433C9.7278 13.9576 9.57555 14.7231 9.57559 15.4962ZM20.207 9.37589C20.2068 9.64798 20.2874 9.91399 20.4385 10.1403C20.5895 10.3666 20.8043 10.543 21.0556 10.6472C21.307 10.7515 21.5836 10.7789 21.8504 10.7259C22.1173 10.6729 22.3625 10.542 22.555 10.3497C22.7475 10.1574 22.8786 9.91232 22.9318 9.64548C22.985 9.37864 22.9579 9.10202 22.8539 8.8506C22.7498 8.59917 22.5736 8.38425 22.3475 8.23298C22.1213 8.08172 21.8553 8.00092 21.5833 8.0008C21.2185 8.00096 20.8688 8.14587 20.6109 8.4037C20.3529 8.66152 20.2079 9.01118 20.2076 9.37589M10.8315 24.8284C10.1045 24.8204 9.38428 24.6874 8.70242 24.4351C8.20792 24.2445 7.75881 23.9525 7.384 23.5778C7.00918 23.2032 6.71697 22.7542 6.52616 22.2598C6.27377 21.5779 6.14072 20.8577 6.13285 20.1307C6.07718 18.9223 6.06629 18.5592 6.06629 15.4977C6.06629 12.4362 6.07839 12.074 6.13285 10.8644C6.14167 10.1375 6.27469 9.41747 6.52616 8.73539C6.71675 8.24074 7.00888 7.79152 7.38371 7.41668C7.75855 7.04185 8.20777 6.74972 8.70242 6.55913C9.38425 6.30674 10.1045 6.1737 10.8315 6.16582C12.0399 6.11015 12.4029 6.09926 15.4632 6.09926C18.5235 6.09926 18.8869 6.11106 20.0965 6.16613C20.8234 6.17495 21.5435 6.30796 22.2256 6.55944C22.7202 6.75004 23.1694 7.04217 23.5443 7.417C23.9191 7.79184 24.2112 8.24105 24.4018 8.73569C24.6542 9.41753 24.7873 10.1377 24.7951 10.8648C24.8508 12.075 24.8617 12.4362 24.8617 15.498C24.8617 18.5598 24.8505 18.9217 24.7951 20.1313C24.7867 20.8582 24.6536 21.5784 24.4018 22.2604C24.211 22.7548 23.9188 23.2038 23.544 23.5784C23.1692 23.9531 22.7201 24.2451 22.2256 24.4357C21.5437 24.6881 20.8235 24.8211 20.0965 24.829C18.8881 24.8847 18.5251 24.8956 15.4632 24.8956C12.4014 24.8956 12.0396 24.8844 10.8315 24.829M10.7365 4.10151C9.78521 4.12022 8.84401 4.30026 7.953 4.634C7.19133 4.92849 6.4996 5.3789 5.92216 5.95634C5.34472 6.53378 4.89431 7.22551 4.59982 7.98718C4.26613 8.8782 4.08608 9.81939 4.06733 10.7707C4.01076 11.993 3.99805 12.3839 3.99805 15.4974C3.99805 18.611 4.01106 19.0016 4.06733 20.2242C4.08608 21.1755 4.26612 22.1166 4.59982 23.0077C4.89433 23.7693 5.34474 24.461 5.92218 25.0385C6.49962 25.6159 7.19134 26.0663 7.953 26.3608C8.84405 26.6944 9.78522 26.8745 10.7365 26.8933C11.9594 26.949 12.3497 26.9626 15.4632 26.9626C18.5768 26.9626 18.9674 26.9496 20.19 26.8933C21.1413 26.8745 22.0824 26.6945 22.9735 26.3608C23.7351 26.0663 24.4269 25.6159 25.0043 25.0385C25.5817 24.461 26.0321 23.7693 26.3267 23.0077C26.6608 22.1168 26.8409 21.1755 26.8592 20.2242C26.9148 19.001 26.9275 18.611 26.9275 15.4974C26.9275 12.3839 26.9145 11.9933 26.8592 10.7707C26.8405 9.81938 26.6604 8.87819 26.3267 7.98718C26.0322 7.22565 25.5819 6.53403 25.0046 5.95661C24.4273 5.37919 23.7358 4.9287 22.9744 4.634C22.0834 4.30005 21.1422 4.11999 20.1909 4.10151C18.9683 4.04554 18.5777 4.03223 15.4648 4.03223C12.3518 4.03223 11.9603 4.04524 10.7371 4.10151" fill="white"/>
</g>
<defs>
<radialGradient id="paint0_radial_6263_397" cx="0" cy="0" r="1" gradientUnits="userSpaceOnUse" gradientTransform="translate(1.99714 30.1844) scale(39.181)">
<stop offset="0.09" stop-color="#FA8F21"/>
<stop offset="0.78" stop-color="#D82D7E"/>
</radialGradient>
<radialGradient id="paint1_radial_6263_397" cx="0" cy="0" r="1" gradientUnits="userSpaceOnUse" gradientTransform="translate(21.3759 29.1932) scale(34.4797)">
<stop offset="0.64" stop-color="#8C3AAA" stop-opacity="0"/>
<stop offset="1" stop-color="#8C3AAA"/>
</radialGradient>
<clipPath id="clip0_6263_397">
<rect width="30.8603" height="30.8603" fill="white"/>
</clipPath>
</defs>
</svg>
