<svg width="31" height="31" viewBox="0 0 31 31" fill="none" xmlns="http://www.w3.org/2000/svg">
<g clip-path="url(#clip0_6263_406)">
<path d="M26.2312 0H4.62904C2.07249 0 0 2.07249 0 4.62904V26.2312C0 28.7878 2.07249 30.8603 4.62904 30.8603H26.2312C28.7878 30.8603 30.8603 28.7878 30.8603 26.2312V4.62904C30.8603 2.07249 28.7878 0 26.2312 0Z" fill="#37AEE2"/>
<path d="M11.9946 24.3511C11.3315 24.3511 11.3918 24.11 11.211 23.5072L9.28223 17.1785L24.0493 8.49902" fill="#C8DAEA"/>
<path d="M11.9941 24.3508C12.4161 24.3508 12.6572 24.1097 12.9585 23.8686L15.6709 21.2769L12.2955 19.2275" fill="#A9C9DD"/>
<path d="M12.2964 19.2275L20.4333 25.1946C21.2772 25.737 22.0005 25.4357 22.2416 24.3507L25.5566 8.80006C25.858 7.47403 25.0142 6.87129 24.1101 7.29321L4.76211 14.7672C3.49636 15.2494 3.49636 16.0329 4.52101 16.3343L9.52375 17.9014L20.9758 10.6083C21.5183 10.3069 22.0005 10.4275 21.6388 10.8494" fill="#F6FBFE"/>
</g>
<defs>
<clipPath id="clip0_6263_406">
<rect width="30.8603" height="30.8603" fill="white"/>
</clipPath>
</defs>
</svg>
