<svg width="31" height="31" viewBox="0 0 31 31" fill="none" xmlns="http://www.w3.org/2000/svg">
<g clip-path="url(#clip0_6263_401)">
<path d="M8.00534 0H7.18178C6.49548 0.0343151 5.60329 0.0686301 5.22582 0.171575C4.60815 0.308836 4.02479 0.480411 3.54438 0.720616C2.99534 0.995137 2.48061 1.3726 2.03452 1.8187C1.58842 2.26479 1.24527 2.74521 0.936437 3.32856C0.696231 3.80897 0.490341 4.39233 0.387396 4.97569C0.318766 5.38747 0.250135 6.27966 0.21582 6.96596V23.6774C0.250135 24.3637 0.28445 25.2559 0.387396 25.6334C0.524656 26.251 0.696231 26.8344 0.936437 27.3148C1.21096 27.8638 1.58842 28.3786 2.03452 28.8247C2.48061 29.2708 2.96103 29.6139 3.54438 29.9227C4.02479 30.1629 4.60815 30.3688 5.19151 30.4718C5.60329 30.5404 6.49548 30.609 7.18178 30.6434H23.8932C24.5795 30.609 25.4717 30.5747 25.8492 30.4718C26.4669 30.3345 27.0502 30.1629 27.5306 29.9227C28.0797 29.6482 28.5944 29.2708 29.0405 28.8247C29.4866 28.3786 29.8297 27.8982 30.1386 27.3148C30.3788 26.8344 30.5847 26.251 30.6876 25.6677C30.7562 25.2559 30.8249 24.3637 30.8592 23.6774V6.96596C30.8249 6.27966 30.7905 5.38747 30.6876 5.01C30.5503 4.39233 30.3788 3.80897 30.1386 3.32856C29.864 2.77952 29.4866 2.26479 29.0405 1.8187C28.5944 1.3726 28.114 1.02945 27.5306 0.720616C27.0502 0.480411 26.4669 0.274521 25.8835 0.171575C25.4717 0.102945 24.5795 0.0343151 23.8932 0H8.00534Z" fill="url(#paint0_linear_6263_401)"/>
<path d="M21.1152 16.9521C20.8407 16.8149 19.4681 16.1629 19.2279 16.0599C18.9877 15.957 18.7818 15.9227 18.6102 16.1972C18.4386 16.4717 17.8896 17.0894 17.7523 17.261C17.5807 17.4325 17.4435 17.4669 17.169 17.3296C16.8944 17.1923 16.0022 16.9178 14.9385 15.9913C14.1149 15.2707 13.5659 14.3785 13.3943 14.104C13.2227 13.8295 13.3943 13.6922 13.5316 13.5549C13.6688 13.4177 13.8061 13.2461 13.9433 13.0745C14.0806 12.903 14.1149 12.8 14.2179 12.6284C14.3208 12.4569 14.2522 12.2853 14.1836 12.148C14.1149 12.0108 13.5659 10.6725 13.3257 10.1234C13.0855 9.60871 12.8796 9.67734 12.708 9.64303H12.1933C12.0217 9.64303 11.7129 9.71166 11.4727 9.98618C11.2325 10.2607 10.5118 10.9127 10.5118 12.251C10.5118 13.5893 11.507 14.8589 11.6442 15.0648C11.7815 15.2364 13.6002 17.9816 16.3454 19.1483C16.9974 19.4228 17.5121 19.5944 17.9239 19.7317C18.5759 19.9375 19.1936 19.9032 19.674 19.8346C20.1887 19.766 21.3211 19.1826 21.527 18.5649C21.7672 17.9473 21.7672 17.3982 21.6986 17.2953C21.5613 17.158 21.3897 17.0894 21.1152 16.9521ZM15.865 24.021C14.2179 24.021 12.6394 23.5749 11.2325 22.7514L10.8893 22.5455L7.4578 23.4377L8.38431 20.1091L8.17841 19.766C7.28622 18.3247 6.80581 16.6776 6.80581 14.9619C6.80581 9.98618 10.8893 5.937 15.8993 5.937C18.267 5.937 20.5662 6.86351 22.2819 8.57926C23.9977 10.295 24.9242 12.5598 24.9242 14.9619C24.9242 19.9375 20.8407 24.021 15.865 24.021ZM23.5859 7.27529C21.527 5.21638 18.7818 4.08398 15.865 4.08398C9.85985 4.08398 4.9528 8.95672 4.9528 14.9619C4.9528 16.8835 5.46752 18.7365 6.39403 20.3836L4.84985 26.0113L10.6148 24.5015C12.1933 25.3593 14.012 25.8397 15.8307 25.8397C21.8358 25.8397 26.7429 20.967 26.7429 14.9619C26.7772 12.0794 25.6448 9.33419 23.5859 7.27529Z" fill="white"/>
</g>
<defs>
<linearGradient id="paint0_linear_6263_401" x1="15.5478" y1="0.00686301" x2="15.5478" y2="30.6228" gradientUnits="userSpaceOnUse">
<stop stop-color="#62FA7F"/>
<stop offset="0.686" stop-color="#22CC40"/>
<stop offset="1" stop-color="#05B723"/>
</linearGradient>
<clipPath id="clip0_6263_401">
<rect width="30.8594" height="30.8594" fill="white"/>
</clipPath>
</defs>
</svg>
