<svg width="32" height="32" viewBox="0 0 32 32" fill="none" xmlns="http://www.w3.org/2000/svg">
<path fill-rule="evenodd" clip-rule="evenodd" d="M4.20602 1.34925C6.82649 1.76053 9.56758 2.99652 11.6348 4.66136C13.0051 4.23208 14.4744 3.99991 16 3.99991C17.5359 3.99991 19.0147 4.2352 20.3928 4.66998C22.5093 3.03316 25.1236 1.75114 27.7805 1.35117C28.3461 1.26788 28.9344 1.55377 29.1927 2.07029C30.2292 4.51942 30.2644 7.43981 29.6269 9.98995L29.6171 10.0295C29.4463 10.7138 29.2255 11.5982 28.5168 11.8957C29.0436 13.1908 29.3333 14.5954 29.3333 16.0701C29.3333 19.7666 27.8157 23.5698 26.4549 26.9797L26.3172 27.3248C25.4909 29.3981 23.6421 30.8261 21.5 31.224L18.4732 31.7862C17.5399 31.9596 16.6083 31.6229 16 30.9442C15.3917 31.6229 14.4603 31.9596 13.5269 31.7862L10.5001 31.224C8.35802 30.8261 6.50918 29.3981 5.68285 27.3248L5.54521 26.9797C4.18444 23.5698 2.66672 19.7666 2.66672 16.0701C2.66672 14.5954 2.95649 13.1908 3.48333 11.8957C2.77394 11.5979 2.55888 10.735 2.38786 10.0488L2.3732 9.98995C1.76414 7.55367 1.64708 4.39572 2.80748 2.07029C3.06436 1.55653 3.63874 1.26112 4.20602 1.34925ZM8.7797 5.92067C7.27354 6.80087 5.96632 7.95358 4.95164 9.30841C4.55429 7.68613 4.54981 5.88202 4.89994 4.25004C6.25122 4.64037 7.57357 5.19379 8.7797 5.92067ZM27.0484 9.30842C26.0404 7.96244 24.7436 6.81592 23.2499 5.93794C24.4485 5.20065 25.7391 4.60997 27.0964 4.23272C27.4512 5.8693 27.4471 7.68089 27.0484 9.30842ZM11.8048 7.42257C13.089 6.93711 14.5063 6.66658 16 6.66658C17.4939 6.66658 18.9111 6.93711 20.1952 7.42257C24.0739 8.88879 26.6667 12.2642 26.6667 16.0701C26.6667 19.2901 25.3188 22.6501 24.1151 25.6506C24.0224 25.8817 23.9304 26.1109 23.8401 26.3374C23.3721 27.5117 22.308 28.3616 21.0129 28.6021L17.9861 29.1644L17.216 27.4528C17.0007 26.9742 16.5247 26.6665 16 26.6665C15.4753 26.6665 14.9995 26.9742 14.7841 27.4528L14.0139 29.1644L10.9871 28.6021C9.6921 28.3616 8.628 27.5117 8.16001 26.3374C8.06982 26.1112 7.97809 25.8825 7.88552 25.6517C6.6818 22.6512 5.33338 19.2901 5.33338 16.0701C5.33338 12.2642 7.92629 8.88879 11.8048 7.42257ZM14 21.3332C13.4949 21.3332 13.0333 21.6185 12.8074 22.0702C12.5816 22.522 12.6303 23.0625 12.9333 23.4665L14.9333 26.1332C15.1852 26.4689 15.5803 26.6665 16 26.6665C16.4197 26.6665 16.8148 26.4689 17.0667 26.1332L19.0667 23.4665C19.3697 23.0625 19.4184 22.522 19.1925 22.0702C18.9667 21.6185 18.5051 21.3332 18 21.3332H14ZM12.8284 14.8282C12.8284 15.9329 11.933 16.8282 10.8284 16.8282C9.72388 16.8282 8.82845 15.9329 8.82845 14.8282C8.82845 13.7237 9.72388 12.8283 10.8284 12.8283C11.933 12.8283 12.8284 13.7237 12.8284 14.8282ZM21.3333 16.6665C22.4379 16.6665 23.3333 15.7712 23.3333 14.6665C23.3333 13.562 22.4379 12.6666 21.3333 12.6666C20.2288 12.6666 19.3333 13.562 19.3333 14.6665C19.3333 15.7712 20.2288 16.6665 21.3333 16.6665Z" fill="black"/>
</svg>
