<svg width="32" height="32" viewBox="0 0 32 32" fill="none" xmlns="http://www.w3.org/2000/svg">
<g clip-path="url(#clip0_3_9)">
<path d="M16 32C24.8366 32 32 24.8366 32 16C32 7.16344 24.8366 0 16 0C7.16344 0 0 7.16344 0 16C0 24.8366 7.16344 32 16 32Z" fill="#F7EC00"/>
<g filter="url(#filter0_n_3_9)">
<path d="M8.6653 15.9199C8.68033 15.9093 8.6967 15.9001 8.71038 15.8877C9.04429 15.5896 9.44145 15.4204 9.87382 15.3285C10.1517 15.2698 10.4322 15.2521 10.7158 15.2932C11.3492 15.3851 11.8064 15.7111 12.0595 16.3029C12.2 16.6316 12.2702 16.9788 12.2684 17.337C12.2657 17.8547 12.0935 18.3114 11.7555 18.7045C11.4821 19.0222 11.1447 19.2531 10.7683 19.4311C10.3659 19.622 9.94231 19.724 9.49752 19.7558C9.09072 19.785 8.68391 19.7876 8.27748 19.7757C7.71031 19.7585 7.15422 19.6702 6.61665 19.4811C5.48852 19.0844 4.71198 18.3194 4.2579 17.2199C4.0927 16.8202 3.98934 16.4032 3.93501 15.9739C3.90541 15.7411 3.88642 15.5074 3.88288 15.2728C3.87184 14.5149 4.02468 13.7909 4.32901 13.097C4.50438 12.6972 4.72126 12.3205 4.94697 11.9481C5.30565 11.3561 5.72086 10.8067 6.19173 10.3013C6.93778 9.50096 7.785 8.82739 8.7435 8.29468C9.86373 7.6718 11.048 7.22482 12.3015 6.95935C12.7419 6.86615 13.1854 6.79282 13.632 6.7407C14.1885 6.67577 14.7478 6.64308 15.3083 6.63646C15.7827 6.63072 16.2562 6.6422 16.7297 6.66826C17.0358 6.68504 17.341 6.7089 17.6459 6.74159C18.0787 6.78796 18.5094 6.85069 18.9378 6.93063C19.5165 7.03842 20.0872 7.178 20.6494 7.35159C21.6137 7.64974 22.5219 8.07158 23.389 8.58619C23.8811 8.87816 24.3356 9.21872 24.7667 9.5924C24.8391 9.65513 24.9116 9.71741 24.9866 9.77752C25.2455 9.98462 25.4809 10.2157 25.6939 10.4696C25.7186 10.4988 25.7438 10.5279 25.7707 10.5549C26.2597 11.0536 26.6563 11.6221 27.0256 12.2109C27.2902 12.6327 27.5283 13.0691 27.7169 13.5312C27.8657 13.8956 27.9789 14.2706 28.0389 14.6593C28.0901 14.9911 28.106 15.325 28.0817 15.6616C28.0411 16.2301 27.9206 16.7786 27.6856 17.2981C27.1365 18.5111 26.2275 19.341 24.984 19.8062C24.4818 19.9943 23.9593 20.0827 23.4234 20.0823C22.7379 20.0818 22.0859 19.9303 21.4711 19.6255C21.2436 19.5128 21.0232 19.3883 20.8169 19.239C20.6256 19.1007 20.4538 18.9417 20.3067 18.7576C20.0306 18.4117 19.793 18.0429 19.6455 17.6219C19.5691 17.4037 19.5187 17.1806 19.5161 16.9487C19.5108 16.5291 19.6583 16.1727 19.9653 15.8847C20.2771 15.5918 20.6455 15.408 21.0634 15.3272C21.4675 15.249 21.8633 15.2909 22.2498 15.4296C22.517 15.5255 22.7671 15.6545 22.9972 15.821C23.0824 15.8829 23.1677 15.9442 23.2516 16.0048C23.2702 15.9924 23.2662 15.9796 23.2604 15.9676C23.0953 15.6275 22.9287 15.2888 22.7277 14.9676C22.298 14.2808 21.6954 13.8081 20.9388 13.5272C20.6901 13.4349 20.4322 13.3841 20.1676 13.377C19.8023 13.3673 19.456 13.4521 19.1274 13.6107C18.9153 13.7131 18.7205 13.843 18.5372 13.991C18.4157 14.0891 18.33 14.2158 18.2505 14.3475C18.1167 14.5692 18.0098 14.8042 17.9135 15.0441C17.728 15.5065 17.5791 15.9805 17.4832 16.4699C17.3547 17.1236 17.3954 17.7646 17.645 18.3869C17.7872 18.7421 17.9934 19.057 18.2545 19.3357C18.6931 19.8044 19.2148 20.1525 19.8076 20.3954C19.9997 20.474 20.1994 20.5164 20.4065 20.5297C20.6548 20.5456 20.9031 20.5632 21.1513 20.5858C21.3275 20.6017 21.5007 20.6366 21.6699 20.6922C22.0771 20.8261 22.3475 21.0968 22.4742 21.5045C22.6968 22.2219 22.5771 22.8748 22.089 23.453C21.896 23.6813 21.669 23.8713 21.422 24.0391C21.024 24.3095 20.5929 24.5149 20.1463 24.6893C19.5934 24.9053 19.0275 25.0802 18.4449 25.1973C18.1587 25.2548 17.8702 25.2967 17.58 25.3298C16.8879 25.4093 16.1934 25.4009 15.4995 25.3736C15.1316 25.359 14.7636 25.3294 14.397 25.2909C13.6063 25.2079 12.8249 25.0731 12.063 24.8377C11.5312 24.6734 11.0188 24.464 10.5408 24.176C10.077 23.8969 9.66754 23.5555 9.3376 23.123C9.24444 23.0011 9.15958 22.8739 9.08272 22.7413C8.95509 22.5214 8.92197 22.2838 8.94933 22.0346C8.99748 21.5955 9.22014 21.2656 9.58455 21.0262C9.83143 20.8641 10.1027 20.7616 10.3902 20.698C10.6146 20.6485 10.8421 20.615 11.0696 20.5854C11.9905 20.4661 12.757 20.0527 13.3881 19.3781C13.6969 19.0477 13.9614 18.6868 14.1704 18.2836C14.2871 18.0579 14.355 17.8242 14.363 17.5702C14.3771 17.125 14.3878 16.6793 14.3369 16.2358C14.2769 15.7146 14.1607 15.2088 13.9155 14.7392C13.8625 14.6373 13.8025 14.5396 13.7398 14.4433C13.4862 14.0542 13.1311 13.8011 12.6938 13.6566C12.264 13.5144 11.8245 13.4808 11.3757 13.5365C10.8014 13.6076 10.2856 13.8205 9.83188 14.1774C9.57132 14.3824 9.3447 14.6235 9.15696 14.8983C8.98911 15.1434 8.84025 15.3997 8.72631 15.6748C8.70066 15.7366 8.67905 15.7998 8.65647 15.863C8.65034 15.8802 8.64855 15.8992 8.66485 15.9191L8.6653 15.9199Z" fill="url(#paint0_radial_3_9)"/>
</g>
</g>
<defs>
<filter id="filter0_n_3_9" x="3.88232" y="6.63501" width="24.2104" height="18.7579" filterUnits="userSpaceOnUse" color-interpolation-filters="sRGB">
<feFlood flood-opacity="0" result="BackgroundImageFix"/>
<feBlend mode="normal" in="SourceGraphic" in2="BackgroundImageFix" result="shape"/>
<feTurbulence type="fractalNoise" baseFrequency="1.2459902763366699 1.2459902763366699" stitchTiles="stitch" numOctaves="3" result="noise" seed="6477" />
<feColorMatrix in="noise" type="luminanceToAlpha" result="alphaNoise" />
<feComponentTransfer in="alphaNoise" result="coloredNoise1">
<feFuncA type="discrete" tableValues="0 1 1 1 1 1 1 1 1 1 1 1 1 1 1 1 1 1 1 1 1 1 1 1 1 1 1 1 1 1 1 1 1 1 1 1 1 1 1 1 1 1 1 1 1 1 1 1 1 1 0 0 0 0 0 0 0 0 0 0 0 0 0 0 0 0 0 0 0 0 0 0 0 0 0 0 0 0 0 0 0 0 0 0 0 0 0 0 0 0 0 0 0 0 0 0 0 0 0 0 "/>
</feComponentTransfer>
<feComposite operator="in" in2="shape" in="coloredNoise1" result="noise1Clipped" />
<feFlood flood-color="rgba(0, 0, 0, 0.25)" result="color1Flood" />
<feComposite operator="in" in2="noise1Clipped" in="color1Flood" result="color1" />
<feMerge result="effect1_noise_3_9">
<feMergeNode in="shape" />
<feMergeNode in="color1" />
</feMerge>
</filter>
<radialGradient id="paint0_radial_3_9" cx="0" cy="0" r="1" gradientUnits="userSpaceOnUse" gradientTransform="translate(15.9513 12.2787) rotate(118.089) scale(12.107 15.6264)">
<stop stop-color="#545448"/>
<stop offset="1"/>
</radialGradient>
<clipPath id="clip0_3_9">
<rect width="32" height="32" fill="white"/>
</clipPath>
</defs>
</svg>
