<svg width="120" height="40" viewBox="0 0 120 40" fill="none" xmlns="http://www.w3.org/2000/svg">
<rect x="0.5" y="0.5" width="119" height="39" rx="5.5" fill="black"/>
<rect x="0.5" y="0.5" width="119" height="39" rx="5.5" stroke="#A6A6A6"/>
<path d="M24.7045 20.7632C24.7166 19.8433 24.9669 18.9414 25.4321 18.1413C25.8972 17.3412 26.5621 16.6689 27.3648 16.1871C26.8548 15.4761 26.1821 14.8909 25.4 14.4781C24.6178 14.0653 23.7479 13.8362 22.8592 13.8091C20.9635 13.6148 19.1258 14.9165 18.1598 14.9165C17.1751 14.9165 15.6878 13.8284 14.0862 13.8605C13.0502 13.8932 12.0406 14.1873 11.1557 14.7142C10.2708 15.2411 9.54075 15.9828 9.03674 16.867C6.85352 20.5574 8.48201 25.981 10.5734 28.9641C11.6197 30.4248 12.8426 32.0565 14.4428 31.9986C16.0086 31.9352 16.5934 31.0238 18.4835 31.0238C20.3561 31.0238 20.9048 31.9986 22.5374 31.9618C24.2176 31.9352 25.2762 30.4946 26.2859 29.0201C27.0377 27.9793 27.6162 26.8289 28 25.6117C27.0238 25.2086 26.1908 24.5339 25.6048 23.6717C25.0187 22.8095 24.7056 21.798 24.7045 20.7632Z" fill="white"/>
<path d="M21.6208 11.8471C22.5369 10.7734 22.9883 9.39335 22.879 8C21.4793 8.14352 20.1865 8.7966 19.258 9.82911C18.804 10.3335 18.4563 10.9203 18.2348 11.556C18.0132 12.1917 17.9222 12.8638 17.9669 13.5338C18.6669 13.5408 19.3595 13.3927 19.9924 13.1005C20.6253 12.8084 21.1821 12.3798 21.6208 11.8471Z" fill="white"/>
<path d="M36.258 11.406C36.258 10.998 36.35 10.632 36.534 10.308C36.718 9.98 36.968 9.724 37.284 9.54C37.604 9.356 37.958 9.264 38.346 9.264C38.802 9.264 39.2 9.374 39.54 9.594C39.88 9.814 40.128 10.126 40.284 10.53H39.63C39.514 10.278 39.346 10.084 39.126 9.948C38.91 9.812 38.65 9.744 38.346 9.744C38.054 9.744 37.792 9.812 37.56 9.948C37.328 10.084 37.146 10.278 37.014 10.53C36.882 10.778 36.816 11.07 36.816 11.406C36.816 11.738 36.882 12.03 37.014 12.282C37.146 12.53 37.328 12.722 37.56 12.858C37.792 12.994 38.054 13.062 38.346 13.062C38.65 13.062 38.91 12.996 39.126 12.864C39.346 12.728 39.514 12.534 39.63 12.282H40.284C40.128 12.682 39.88 12.992 39.54 13.212C39.2 13.428 38.802 13.536 38.346 13.536C37.958 13.536 37.604 13.446 37.284 13.266C36.968 13.082 36.718 12.828 36.534 12.504C36.35 12.18 36.258 11.814 36.258 11.406ZM42.5308 13.554C42.2228 13.554 41.9428 13.484 41.6908 13.344C41.4428 13.204 41.2468 13.006 41.1028 12.75C40.9628 12.49 40.8928 12.19 40.8928 11.85C40.8928 11.514 40.9648 11.218 41.1088 10.962C41.2568 10.702 41.4568 10.504 41.7088 10.368C41.9608 10.228 42.2428 10.158 42.5548 10.158C42.8668 10.158 43.1488 10.228 43.4008 10.368C43.6528 10.504 43.8508 10.7 43.9948 10.956C44.1428 11.212 44.2168 11.51 44.2168 11.85C44.2168 12.19 44.1408 12.49 43.9888 12.75C43.8408 13.006 43.6388 13.204 43.3828 13.344C43.1268 13.484 42.8428 13.554 42.5308 13.554ZM42.5308 13.074C42.7268 13.074 42.9108 13.028 43.0828 12.936C43.2548 12.844 43.3928 12.706 43.4968 12.522C43.6048 12.338 43.6588 12.114 43.6588 11.85C43.6588 11.586 43.6068 11.362 43.5028 11.178C43.3988 10.994 43.2628 10.858 43.0948 10.77C42.9268 10.678 42.7448 10.632 42.5488 10.632C42.3488 10.632 42.1648 10.678 41.9968 10.77C41.8328 10.858 41.7008 10.994 41.6008 11.178C41.5008 11.362 41.4508 11.586 41.4508 11.85C41.4508 12.118 41.4988 12.344 41.5948 12.528C41.6948 12.712 41.8268 12.85 41.9908 12.942C42.1548 13.03 42.3348 13.074 42.5308 13.074ZM48.8887 10.152C49.1447 10.152 49.3727 10.206 49.5727 10.314C49.7727 10.418 49.9307 10.576 50.0467 10.788C50.1627 11 50.2207 11.258 50.2207 11.562V13.5H49.6807V11.64C49.6807 11.312 49.5987 11.062 49.4347 10.89C49.2747 10.714 49.0567 10.626 48.7807 10.626C48.4967 10.626 48.2707 10.718 48.1027 10.902C47.9347 11.082 47.8507 11.344 47.8507 11.688V13.5H47.3107V11.64C47.3107 11.312 47.2287 11.062 47.0647 10.89C46.9047 10.714 46.6867 10.626 46.4107 10.626C46.1267 10.626 45.9007 10.718 45.7327 10.902C45.5647 11.082 45.4807 11.344 45.4807 11.688V13.5H44.9347V10.212H45.4807V10.686C45.5887 10.514 45.7327 10.382 45.9127 10.29C46.0967 10.198 46.2987 10.152 46.5187 10.152C46.7947 10.152 47.0387 10.214 47.2507 10.338C47.4627 10.462 47.6207 10.644 47.7247 10.884C47.8167 10.652 47.9687 10.472 48.1807 10.344C48.3927 10.216 48.6287 10.152 48.8887 10.152ZM51.3983 9.678C51.2943 9.678 51.2063 9.642 51.1343 9.57C51.0623 9.498 51.0263 9.41 51.0263 9.306C51.0263 9.202 51.0623 9.114 51.1343 9.042C51.2063 8.97 51.2943 8.934 51.3983 8.934C51.4983 8.934 51.5823 8.97 51.6503 9.042C51.7223 9.114 51.7583 9.202 51.7583 9.306C51.7583 9.41 51.7223 9.498 51.6503 9.57C51.5823 9.642 51.4983 9.678 51.3983 9.678ZM51.6623 10.212V13.5H51.1163V10.212H51.6623ZM54.1949 10.152C54.5949 10.152 54.9189 10.274 55.1669 10.518C55.4149 10.758 55.5389 11.106 55.5389 11.562V13.5H54.9989V11.64C54.9989 11.312 54.9169 11.062 54.7529 10.89C54.5889 10.714 54.3649 10.626 54.0809 10.626C53.7929 10.626 53.5629 10.716 53.3909 10.896C53.2229 11.076 53.1389 11.338 53.1389 11.682V13.5H52.5929V10.212H53.1389V10.68C53.2469 10.512 53.3929 10.382 53.5769 10.29C53.7649 10.198 53.9709 10.152 54.1949 10.152ZM57.7868 10.158C58.0708 10.158 58.3188 10.22 58.5308 10.344C58.7468 10.468 58.9068 10.624 59.0108 10.812V10.212H59.5628V13.572C59.5628 13.872 59.4988 14.138 59.3708 14.37C59.2428 14.606 59.0588 14.79 58.8188 14.922C58.5828 15.054 58.3068 15.12 57.9908 15.12C57.5588 15.12 57.1988 15.018 56.9108 14.814C56.6228 14.61 56.4528 14.332 56.4008 13.98H56.9408C57.0008 14.18 57.1248 14.34 57.3128 14.46C57.5008 14.584 57.7268 14.646 57.9908 14.646C58.2908 14.646 58.5348 14.552 58.7228 14.364C58.9148 14.176 59.0108 13.912 59.0108 13.572V12.882C58.9028 13.074 58.7428 13.234 58.5308 13.362C58.3188 13.49 58.0708 13.554 57.7868 13.554C57.4948 13.554 57.2288 13.482 56.9888 13.338C56.7528 13.194 56.5668 12.992 56.4308 12.732C56.2948 12.472 56.2268 12.176 56.2268 11.844C56.2268 11.508 56.2948 11.214 56.4308 10.962C56.5668 10.706 56.7528 10.508 56.9888 10.368C57.2288 10.228 57.4948 10.158 57.7868 10.158ZM59.0108 11.85C59.0108 11.602 58.9608 11.386 58.8608 11.202C58.7608 11.018 58.6248 10.878 58.4528 10.782C58.2848 10.682 58.0988 10.632 57.8948 10.632C57.6908 10.632 57.5048 10.68 57.3368 10.776C57.1688 10.872 57.0348 11.012 56.9348 11.196C56.8348 11.38 56.7848 11.596 56.7848 11.844C56.7848 12.096 56.8348 12.316 56.9348 12.504C57.0348 12.688 57.1688 12.83 57.3368 12.93C57.5048 13.026 57.6908 13.074 57.8948 13.074C58.0988 13.074 58.2848 13.026 58.4528 12.93C58.6248 12.83 58.7608 12.688 58.8608 12.504C58.9608 12.316 59.0108 12.098 59.0108 11.85ZM63.411 13.542C63.135 13.542 62.887 13.494 62.667 13.398C62.451 13.298 62.281 13.162 62.157 12.99C62.033 12.814 61.969 12.612 61.965 12.384H62.547C62.567 12.58 62.647 12.746 62.787 12.882C62.931 13.014 63.139 13.08 63.411 13.08C63.671 13.08 63.875 13.016 64.023 12.888C64.175 12.756 64.251 12.588 64.251 12.384C64.251 12.224 64.207 12.094 64.119 11.994C64.031 11.894 63.921 11.818 63.789 11.766C63.657 11.714 63.479 11.658 63.255 11.598C62.979 11.526 62.757 11.454 62.589 11.382C62.425 11.31 62.283 11.198 62.163 11.046C62.047 10.89 61.989 10.682 61.989 10.422C61.989 10.194 62.047 9.992 62.163 9.816C62.279 9.64 62.441 9.504 62.649 9.408C62.861 9.312 63.103 9.264 63.375 9.264C63.767 9.264 64.087 9.362 64.335 9.558C64.587 9.754 64.729 10.014 64.761 10.338H64.161C64.141 10.178 64.057 10.038 63.909 9.918C63.761 9.794 63.565 9.732 63.321 9.732C63.093 9.732 62.907 9.792 62.763 9.912C62.619 10.028 62.547 10.192 62.547 10.404C62.547 10.556 62.589 10.68 62.673 10.776C62.761 10.872 62.867 10.946 62.991 10.998C63.119 11.046 63.297 11.102 63.525 11.166C63.801 11.242 64.023 11.318 64.191 11.394C64.359 11.466 64.503 11.58 64.623 11.736C64.743 11.888 64.803 12.096 64.803 12.36C64.803 12.564 64.749 12.756 64.641 12.936C64.533 13.116 64.373 13.262 64.161 13.374C63.949 13.486 63.699 13.542 63.411 13.542ZM67.0405 13.554C66.7325 13.554 66.4525 13.484 66.2005 13.344C65.9525 13.204 65.7565 13.006 65.6125 12.75C65.4725 12.49 65.4025 12.19 65.4025 11.85C65.4025 11.514 65.4745 11.218 65.6185 10.962C65.7665 10.702 65.9665 10.504 66.2185 10.368C66.4705 10.228 66.7525 10.158 67.0645 10.158C67.3765 10.158 67.6585 10.228 67.9105 10.368C68.1625 10.504 68.3605 10.7 68.5045 10.956C68.6525 11.212 68.7265 11.51 68.7265 11.85C68.7265 12.19 68.6505 12.49 68.4985 12.75C68.3505 13.006 68.1485 13.204 67.8925 13.344C67.6365 13.484 67.3525 13.554 67.0405 13.554ZM67.0405 13.074C67.2365 13.074 67.4205 13.028 67.5925 12.936C67.7645 12.844 67.9025 12.706 68.0065 12.522C68.1145 12.338 68.1685 12.114 68.1685 11.85C68.1685 11.586 68.1165 11.362 68.0125 11.178C67.9085 10.994 67.7725 10.858 67.6045 10.77C67.4365 10.678 67.2545 10.632 67.0585 10.632C66.8585 10.632 66.6745 10.678 66.5065 10.77C66.3425 10.858 66.2105 10.994 66.1105 11.178C66.0105 11.362 65.9605 11.586 65.9605 11.85C65.9605 12.118 66.0085 12.344 66.1045 12.528C66.2045 12.712 66.3365 12.85 66.5005 12.942C66.6645 13.03 66.8445 13.074 67.0405 13.074ZM70.8784 13.554C70.5704 13.554 70.2904 13.484 70.0384 13.344C69.7904 13.204 69.5944 13.006 69.4504 12.75C69.3104 12.49 69.2404 12.19 69.2404 11.85C69.2404 11.514 69.3124 11.218 69.4564 10.962C69.6044 10.702 69.8044 10.504 70.0564 10.368C70.3084 10.228 70.5904 10.158 70.9024 10.158C71.2144 10.158 71.4964 10.228 71.7484 10.368C72.0004 10.504 72.1984 10.7 72.3424 10.956C72.4904 11.212 72.5644 11.51 72.5644 11.85C72.5644 12.19 72.4884 12.49 72.3364 12.75C72.1884 13.006 71.9864 13.204 71.7304 13.344C71.4744 13.484 71.1904 13.554 70.8784 13.554ZM70.8784 13.074C71.0744 13.074 71.2584 13.028 71.4304 12.936C71.6024 12.844 71.7404 12.706 71.8444 12.522C71.9524 12.338 72.0064 12.114 72.0064 11.85C72.0064 11.586 71.9544 11.362 71.8504 11.178C71.7464 10.994 71.6104 10.858 71.4424 10.77C71.2744 10.678 71.0924 10.632 70.8964 10.632C70.6964 10.632 70.5124 10.678 70.3444 10.77C70.1804 10.858 70.0484 10.994 69.9484 11.178C69.8484 11.362 69.7984 11.586 69.7984 11.85C69.7984 12.118 69.8464 12.344 69.9424 12.528C70.0424 12.712 70.1744 12.85 70.3384 12.942C70.5024 13.03 70.6824 13.074 70.8784 13.074ZM74.8843 10.152C75.2843 10.152 75.6083 10.274 75.8563 10.518C76.1043 10.758 76.2283 11.106 76.2283 11.562V13.5H75.6883V11.64C75.6883 11.312 75.6063 11.062 75.4423 10.89C75.2783 10.714 75.0543 10.626 74.7703 10.626C74.4823 10.626 74.2523 10.716 74.0803 10.896C73.9123 11.076 73.8283 11.338 73.8283 11.682V13.5H73.2823V10.212H73.8283V10.68C73.9363 10.512 74.0823 10.382 74.2663 10.29C74.4543 10.198 74.6603 10.152 74.8843 10.152ZM80.6158 13.542C80.2278 13.542 79.8738 13.452 79.5538 13.272C79.2338 13.088 78.9798 12.834 78.7918 12.51C78.6078 12.182 78.5158 11.814 78.5158 11.406C78.5158 10.998 78.6078 10.632 78.7918 10.308C78.9798 9.98 79.2338 9.726 79.5538 9.546C79.8738 9.362 80.2278 9.27 80.6158 9.27C81.0078 9.27 81.3638 9.362 81.6838 9.546C82.0038 9.726 82.2558 9.978 82.4398 10.302C82.6238 10.626 82.7158 10.994 82.7158 11.406C82.7158 11.818 82.6238 12.186 82.4398 12.51C82.2558 12.834 82.0038 13.088 81.6838 13.272C81.3638 13.452 81.0078 13.542 80.6158 13.542ZM80.6158 13.068C80.9078 13.068 81.1698 13 81.4018 12.864C81.6378 12.728 81.8218 12.534 81.9538 12.282C82.0898 12.03 82.1578 11.738 82.1578 11.406C82.1578 11.07 82.0898 10.778 81.9538 10.53C81.8218 10.278 81.6398 10.084 81.4078 9.948C81.1758 9.812 80.9118 9.744 80.6158 9.744C80.3198 9.744 80.0558 9.812 79.8238 9.948C79.5918 10.084 79.4078 10.278 79.2718 10.53C79.1398 10.778 79.0738 11.07 79.0738 11.406C79.0738 11.738 79.1398 12.03 79.2718 12.282C79.4078 12.534 79.5918 12.728 79.8238 12.864C80.0598 13 80.3238 13.068 80.6158 13.068ZM85.0386 10.152C85.4386 10.152 85.7626 10.274 86.0106 10.518C86.2586 10.758 86.3826 11.106 86.3826 11.562V13.5H85.8426V11.64C85.8426 11.312 85.7606 11.062 85.5966 10.89C85.4326 10.714 85.2086 10.626 84.9246 10.626C84.6366 10.626 84.4066 10.716 84.2346 10.896C84.0666 11.076 83.9826 11.338 83.9826 11.682V13.5H83.4366V10.212H83.9826V10.68C84.0906 10.512 84.2366 10.382 84.4206 10.29C84.6086 10.198 84.8146 10.152 85.0386 10.152ZM91.4481 9.318V9.762H90.3081V13.5H89.7621V9.762H88.6161V9.318H91.4481ZM93.7522 10.152C94.0002 10.152 94.2242 10.206 94.4242 10.314C94.6242 10.418 94.7802 10.576 94.8922 10.788C95.0082 11 95.0662 11.258 95.0662 11.562V13.5H94.5262V11.64C94.5262 11.312 94.4442 11.062 94.2802 10.89C94.1162 10.714 93.8922 10.626 93.6082 10.626C93.3202 10.626 93.0902 10.716 92.9182 10.896C92.7502 11.076 92.6662 11.338 92.6662 11.682V13.5H92.1202V9.06H92.6662V10.68C92.7742 10.512 92.9222 10.382 93.1102 10.29C93.3022 10.198 93.5162 10.152 93.7522 10.152ZM98.9581 11.73C98.9581 11.834 98.9521 11.944 98.9401 12.06H96.3121C96.3321 12.384 96.4421 12.638 96.6421 12.822C96.8461 13.002 97.0921 13.092 97.3801 13.092C97.6161 13.092 97.8121 13.038 97.9681 12.93C98.1281 12.818 98.2401 12.67 98.3041 12.486H98.8921C98.8041 12.802 98.6281 13.06 98.3641 13.26C98.1001 13.456 97.7721 13.554 97.3801 13.554C97.0681 13.554 96.7881 13.484 96.5401 13.344C96.2961 13.204 96.1041 13.006 95.9641 12.75C95.8241 12.49 95.7541 12.19 95.7541 11.85C95.7541 11.51 95.8221 11.212 95.9581 10.956C96.0941 10.7 96.2841 10.504 96.5281 10.368C96.7761 10.228 97.0601 10.158 97.3801 10.158C97.6921 10.158 97.9681 10.226 98.2081 10.362C98.4481 10.498 98.6321 10.686 98.7601 10.926C98.8921 11.162 98.9581 11.43 98.9581 11.73ZM98.3941 11.616C98.3941 11.408 98.3481 11.23 98.2561 11.082C98.1641 10.93 98.0381 10.816 97.8781 10.74C97.7221 10.66 97.5481 10.62 97.3561 10.62C97.0801 10.62 96.8441 10.708 96.6481 10.884C96.4561 11.06 96.3461 11.304 96.3181 11.616H98.3941Z" fill="white"/>
<path d="M38.2061 30.5H36.1758L40.3066 18.5029H42.5391L46.6611 30.5H44.5518L43.4883 27.1777H39.2783L38.2061 30.5ZM41.4316 20.5771H41.3525L39.7266 25.6484H43.04L41.4316 20.5771ZM52.2644 30.6318C51.0603 30.6318 50.1462 30.0605 49.654 29.208H49.5837V33.585H47.6325V21.21H49.531V22.5723H49.6013C50.1111 21.6846 51.0603 21.0869 52.3083 21.0869C54.3913 21.0869 55.8767 22.6602 55.8767 25.4375V26.2637C55.8767 29.0234 54.4089 30.6318 52.2644 30.6318ZM51.8161 29.0234C53.0554 29.0234 53.8991 28.0303 53.8991 26.1582V25.5078C53.8991 23.7061 53.1081 22.6777 51.781 22.6777C50.4187 22.6777 49.5661 23.7852 49.5661 25.499V26.1582C49.5661 27.916 50.4275 29.0234 51.8161 29.0234ZM62.183 30.6318C60.9789 30.6318 60.0649 30.0605 59.5727 29.208H59.5024V33.585H57.5512V21.21H59.4496V22.5723H59.52C60.0297 21.6846 60.9789 21.0869 62.227 21.0869C64.31 21.0869 65.7954 22.6602 65.7954 25.4375V26.2637C65.7954 29.0234 64.3276 30.6318 62.183 30.6318ZM61.7348 29.0234C62.9741 29.0234 63.8178 28.0303 63.8178 26.1582V25.5078C63.8178 23.7061 63.0268 22.6777 61.6996 22.6777C60.3373 22.6777 59.4848 23.7852 59.4848 25.499V26.1582C59.4848 27.916 60.3461 29.0234 61.7348 29.0234ZM69.8387 27.1689H71.7899C71.8778 28.2061 72.7919 29.0938 74.4882 29.0938C76.0438 29.0938 76.9667 28.3643 76.9667 27.2305C76.9667 26.3164 76.3514 25.8242 75.0682 25.5166L73.0995 25.0244C71.5526 24.6641 70.1639 23.7412 70.1639 21.79C70.1639 19.4961 72.1679 18.2393 74.497 18.2393C76.8261 18.2393 78.7684 19.4961 78.8124 21.7373H76.8964C76.8085 20.7178 76.0262 19.874 74.4706 19.874C73.0995 19.874 72.1679 20.5244 72.1679 21.6406C72.1679 22.4229 72.7128 22.9854 73.829 23.2402L75.7889 23.7236C77.5907 24.1631 78.9618 25.0156 78.9618 27.0547C78.9618 29.4102 77.0546 30.7373 74.3387 30.7373C70.9989 30.7373 69.8827 28.7861 69.8387 27.1689ZM81.3395 21.21V18.9512H83.2555V21.21H85.066V22.7744H83.2555V27.7314C83.2555 28.7422 83.6334 29.0234 84.6793 29.0234C84.8463 29.0234 85.0045 29.0234 85.1188 29.0059V30.5C84.9605 30.5264 84.5914 30.5615 84.1959 30.5615C81.9371 30.5615 81.3131 29.7529 81.3131 27.8896V22.7744H80.0299V21.21H81.3395ZM90.3353 21.0518C93.0071 21.0518 94.4573 22.9326 94.4573 25.4639V26.2109C94.4573 28.8301 93.0159 30.6582 90.3353 30.6582C87.6546 30.6582 86.1956 28.8301 86.1956 26.2109V25.4639C86.1956 22.9414 87.6634 21.0518 90.3353 21.0518ZM90.3353 22.6162C88.8851 22.6162 88.1644 23.8027 88.1644 25.4902V26.2021C88.1644 27.8633 88.8763 29.085 90.3353 29.085C91.7943 29.085 92.4974 27.8721 92.4974 26.2021V25.4902C92.4974 23.7939 91.7855 22.6162 90.3353 22.6162ZM96.1055 30.5V21.21H98.0567V22.4316H98.127C98.3643 21.8516 99.0586 21.0781 100.351 21.0781C100.606 21.0781 100.825 21.0957 101.01 21.1309V22.8535C100.843 22.8096 100.5 22.7832 100.175 22.7832C98.6104 22.7832 98.083 23.75 98.083 24.998V30.5H96.1055ZM105.743 30.6582C103.256 30.6582 101.674 29.0146 101.674 26.2637V25.3232C101.674 22.7305 103.22 21.0518 105.664 21.0518C108.142 21.0518 109.636 22.792 109.636 25.4111V26.2988H103.598V26.5186C103.598 28.083 104.442 29.1201 105.769 29.1201C106.762 29.1201 107.439 28.6279 107.677 27.8281H109.531C109.25 29.3311 108.037 30.6582 105.743 30.6582ZM103.598 24.9365H107.729V24.9189C107.729 23.6006 106.912 22.5635 105.673 22.5635C104.416 22.5635 103.598 23.6006 103.598 24.9189V24.9365Z" fill="white"/>
</svg>
