<svg width="120" height="40" viewBox="0 0 120 40" fill="none" xmlns="http://www.w3.org/2000/svg">
<rect x="0.5" y="0.5" width="119" height="39" rx="5.5" fill="black"/>
<rect x="0.5" y="0.5" width="119" height="39" rx="5.5" stroke="#A6A6A6"/>
<path d="M17.8048 19.4617L8.0896 30.0059C8.09051 30.0078 8.09051 30.0106 8.09142 30.0125C8.38981 31.1574 9.41179 32 10.6254 32C11.1108 32 11.5662 31.8656 11.9567 31.6305L11.9877 31.6118L22.9229 25.1593L17.8048 19.4617Z" fill="#EA4335"/>
<path d="M27.6332 17.6662L27.624 17.6597L22.9029 14.8612L17.584 19.7013L22.922 25.1582L27.6177 22.3878C28.4407 21.9324 29.0001 21.045 29.0001 20.0223C29.0001 19.0052 28.4489 18.1225 27.6332 17.6662Z" fill="#FBBC04"/>
<path d="M8.08942 9.99325C8.03102 10.2135 8 10.4449 8 10.6838V29.3163C8 29.5552 8.03102 29.7866 8.09034 30.0059L18.1386 19.7313L8.08942 9.99325Z" fill="#4285F4"/>
<path d="M17.8762 20L22.904 14.8594L11.9815 8.3836C11.5846 8.14005 11.1211 8.00009 10.6256 8.00009C9.41197 8.00009 8.38816 8.84456 8.08978 9.99043C8.08978 9.99136 8.08887 9.9923 8.08887 9.99323L17.8762 20Z" fill="#34A853"/>
<path d="M36.258 9.906C36.258 9.498 36.35 9.132 36.534 8.808C36.718 8.48 36.968 8.224 37.284 8.04C37.604 7.856 37.958 7.764 38.346 7.764C38.802 7.764 39.2 7.874 39.54 8.094C39.88 8.314 40.128 8.626 40.284 9.03H39.63C39.514 8.778 39.346 8.584 39.126 8.448C38.91 8.312 38.65 8.244 38.346 8.244C38.054 8.244 37.792 8.312 37.56 8.448C37.328 8.584 37.146 8.778 37.014 9.03C36.882 9.278 36.816 9.57 36.816 9.906C36.816 10.238 36.882 10.53 37.014 10.782C37.146 11.03 37.328 11.222 37.56 11.358C37.792 11.494 38.054 11.562 38.346 11.562C38.65 11.562 38.91 11.496 39.126 11.364C39.346 11.228 39.514 11.034 39.63 10.782H40.284C40.128 11.182 39.88 11.492 39.54 11.712C39.2 11.928 38.802 12.036 38.346 12.036C37.958 12.036 37.604 11.946 37.284 11.766C36.968 11.582 36.718 11.328 36.534 11.004C36.35 10.68 36.258 10.314 36.258 9.906ZM42.5308 12.054C42.2228 12.054 41.9428 11.984 41.6908 11.844C41.4428 11.704 41.2468 11.506 41.1028 11.25C40.9628 10.99 40.8928 10.69 40.8928 10.35C40.8928 10.014 40.9648 9.718 41.1088 9.462C41.2568 9.202 41.4568 9.004 41.7088 8.868C41.9608 8.728 42.2428 8.658 42.5548 8.658C42.8668 8.658 43.1488 8.728 43.4008 8.868C43.6528 9.004 43.8508 9.2 43.9948 9.456C44.1428 9.712 44.2168 10.01 44.2168 10.35C44.2168 10.69 44.1408 10.99 43.9888 11.25C43.8408 11.506 43.6388 11.704 43.3828 11.844C43.1268 11.984 42.8428 12.054 42.5308 12.054ZM42.5308 11.574C42.7268 11.574 42.9108 11.528 43.0828 11.436C43.2548 11.344 43.3928 11.206 43.4968 11.022C43.6048 10.838 43.6588 10.614 43.6588 10.35C43.6588 10.086 43.6068 9.862 43.5028 9.678C43.3988 9.494 43.2628 9.358 43.0948 9.27C42.9268 9.178 42.7448 9.132 42.5488 9.132C42.3488 9.132 42.1648 9.178 41.9968 9.27C41.8328 9.358 41.7008 9.494 41.6008 9.678C41.5008 9.862 41.4508 10.086 41.4508 10.35C41.4508 10.618 41.4988 10.844 41.5948 11.028C41.6948 11.212 41.8268 11.35 41.9908 11.442C42.1548 11.53 42.3348 11.574 42.5308 11.574ZM48.8887 8.652C49.1447 8.652 49.3727 8.706 49.5727 8.814C49.7727 8.918 49.9307 9.076 50.0467 9.288C50.1627 9.5 50.2207 9.758 50.2207 10.062V12H49.6807V10.14C49.6807 9.812 49.5987 9.562 49.4347 9.39C49.2747 9.214 49.0567 9.126 48.7807 9.126C48.4967 9.126 48.2707 9.218 48.1027 9.402C47.9347 9.582 47.8507 9.844 47.8507 10.188V12H47.3107V10.14C47.3107 9.812 47.2287 9.562 47.0647 9.39C46.9047 9.214 46.6867 9.126 46.4107 9.126C46.1267 9.126 45.9007 9.218 45.7327 9.402C45.5647 9.582 45.4807 9.844 45.4807 10.188V12H44.9347V8.712H45.4807V9.186C45.5887 9.014 45.7327 8.882 45.9127 8.79C46.0967 8.698 46.2987 8.652 46.5187 8.652C46.7947 8.652 47.0387 8.714 47.2507 8.838C47.4627 8.962 47.6207 9.144 47.7247 9.384C47.8167 9.152 47.9687 8.972 48.1807 8.844C48.3927 8.716 48.6287 8.652 48.8887 8.652ZM51.3983 8.178C51.2943 8.178 51.2063 8.142 51.1343 8.07C51.0623 7.998 51.0263 7.91 51.0263 7.806C51.0263 7.702 51.0623 7.614 51.1343 7.542C51.2063 7.47 51.2943 7.434 51.3983 7.434C51.4983 7.434 51.5823 7.47 51.6503 7.542C51.7223 7.614 51.7583 7.702 51.7583 7.806C51.7583 7.91 51.7223 7.998 51.6503 8.07C51.5823 8.142 51.4983 8.178 51.3983 8.178ZM51.6623 8.712V12H51.1163V8.712H51.6623ZM54.1949 8.652C54.5949 8.652 54.9189 8.774 55.1669 9.018C55.4149 9.258 55.5389 9.606 55.5389 10.062V12H54.9989V10.14C54.9989 9.812 54.9169 9.562 54.7529 9.39C54.5889 9.214 54.3649 9.126 54.0809 9.126C53.7929 9.126 53.5629 9.216 53.3909 9.396C53.2229 9.576 53.1389 9.838 53.1389 10.182V12H52.5929V8.712H53.1389V9.18C53.2469 9.012 53.3929 8.882 53.5769 8.79C53.7649 8.698 53.9709 8.652 54.1949 8.652ZM57.7868 8.658C58.0708 8.658 58.3188 8.72 58.5308 8.844C58.7468 8.968 58.9068 9.124 59.0108 9.312V8.712H59.5628V12.072C59.5628 12.372 59.4988 12.638 59.3708 12.87C59.2428 13.106 59.0588 13.29 58.8188 13.422C58.5828 13.554 58.3068 13.62 57.9908 13.62C57.5588 13.62 57.1988 13.518 56.9108 13.314C56.6228 13.11 56.4528 12.832 56.4008 12.48H56.9408C57.0008 12.68 57.1248 12.84 57.3128 12.96C57.5008 13.084 57.7268 13.146 57.9908 13.146C58.2908 13.146 58.5348 13.052 58.7228 12.864C58.9148 12.676 59.0108 12.412 59.0108 12.072V11.382C58.9028 11.574 58.7428 11.734 58.5308 11.862C58.3188 11.99 58.0708 12.054 57.7868 12.054C57.4948 12.054 57.2288 11.982 56.9888 11.838C56.7528 11.694 56.5668 11.492 56.4308 11.232C56.2948 10.972 56.2268 10.676 56.2268 10.344C56.2268 10.008 56.2948 9.714 56.4308 9.462C56.5668 9.206 56.7528 9.008 56.9888 8.868C57.2288 8.728 57.4948 8.658 57.7868 8.658ZM59.0108 10.35C59.0108 10.102 58.9608 9.886 58.8608 9.702C58.7608 9.518 58.6248 9.378 58.4528 9.282C58.2848 9.182 58.0988 9.132 57.8948 9.132C57.6908 9.132 57.5048 9.18 57.3368 9.276C57.1688 9.372 57.0348 9.512 56.9348 9.696C56.8348 9.88 56.7848 10.096 56.7848 10.344C56.7848 10.596 56.8348 10.816 56.9348 11.004C57.0348 11.188 57.1688 11.33 57.3368 11.43C57.5048 11.526 57.6908 11.574 57.8948 11.574C58.0988 11.574 58.2848 11.526 58.4528 11.43C58.6248 11.33 58.7608 11.188 58.8608 11.004C58.9608 10.816 59.0108 10.598 59.0108 10.35ZM63.411 12.042C63.135 12.042 62.887 11.994 62.667 11.898C62.451 11.798 62.281 11.662 62.157 11.49C62.033 11.314 61.969 11.112 61.965 10.884H62.547C62.567 11.08 62.647 11.246 62.787 11.382C62.931 11.514 63.139 11.58 63.411 11.58C63.671 11.58 63.875 11.516 64.023 11.388C64.175 11.256 64.251 11.088 64.251 10.884C64.251 10.724 64.207 10.594 64.119 10.494C64.031 10.394 63.921 10.318 63.789 10.266C63.657 10.214 63.479 10.158 63.255 10.098C62.979 10.026 62.757 9.954 62.589 9.882C62.425 9.81 62.283 9.698 62.163 9.546C62.047 9.39 61.989 9.182 61.989 8.922C61.989 8.694 62.047 8.492 62.163 8.316C62.279 8.14 62.441 8.004 62.649 7.908C62.861 7.812 63.103 7.764 63.375 7.764C63.767 7.764 64.087 7.862 64.335 8.058C64.587 8.254 64.729 8.514 64.761 8.838H64.161C64.141 8.678 64.057 8.538 63.909 8.418C63.761 8.294 63.565 8.232 63.321 8.232C63.093 8.232 62.907 8.292 62.763 8.412C62.619 8.528 62.547 8.692 62.547 8.904C62.547 9.056 62.589 9.18 62.673 9.276C62.761 9.372 62.867 9.446 62.991 9.498C63.119 9.546 63.297 9.602 63.525 9.666C63.801 9.742 64.023 9.818 64.191 9.894C64.359 9.966 64.503 10.08 64.623 10.236C64.743 10.388 64.803 10.596 64.803 10.86C64.803 11.064 64.749 11.256 64.641 11.436C64.533 11.616 64.373 11.762 64.161 11.874C63.949 11.986 63.699 12.042 63.411 12.042ZM67.0405 12.054C66.7325 12.054 66.4525 11.984 66.2005 11.844C65.9525 11.704 65.7565 11.506 65.6125 11.25C65.4725 10.99 65.4025 10.69 65.4025 10.35C65.4025 10.014 65.4745 9.718 65.6185 9.462C65.7665 9.202 65.9665 9.004 66.2185 8.868C66.4705 8.728 66.7525 8.658 67.0645 8.658C67.3765 8.658 67.6585 8.728 67.9105 8.868C68.1625 9.004 68.3605 9.2 68.5045 9.456C68.6525 9.712 68.7265 10.01 68.7265 10.35C68.7265 10.69 68.6505 10.99 68.4985 11.25C68.3505 11.506 68.1485 11.704 67.8925 11.844C67.6365 11.984 67.3525 12.054 67.0405 12.054ZM67.0405 11.574C67.2365 11.574 67.4205 11.528 67.5925 11.436C67.7645 11.344 67.9025 11.206 68.0065 11.022C68.1145 10.838 68.1685 10.614 68.1685 10.35C68.1685 10.086 68.1165 9.862 68.0125 9.678C67.9085 9.494 67.7725 9.358 67.6045 9.27C67.4365 9.178 67.2545 9.132 67.0585 9.132C66.8585 9.132 66.6745 9.178 66.5065 9.27C66.3425 9.358 66.2105 9.494 66.1105 9.678C66.0105 9.862 65.9605 10.086 65.9605 10.35C65.9605 10.618 66.0085 10.844 66.1045 11.028C66.2045 11.212 66.3365 11.35 66.5005 11.442C66.6645 11.53 66.8445 11.574 67.0405 11.574ZM70.8784 12.054C70.5704 12.054 70.2904 11.984 70.0384 11.844C69.7904 11.704 69.5944 11.506 69.4504 11.25C69.3104 10.99 69.2404 10.69 69.2404 10.35C69.2404 10.014 69.3124 9.718 69.4564 9.462C69.6044 9.202 69.8044 9.004 70.0564 8.868C70.3084 8.728 70.5904 8.658 70.9024 8.658C71.2144 8.658 71.4964 8.728 71.7484 8.868C72.0004 9.004 72.1984 9.2 72.3424 9.456C72.4904 9.712 72.5644 10.01 72.5644 10.35C72.5644 10.69 72.4884 10.99 72.3364 11.25C72.1884 11.506 71.9864 11.704 71.7304 11.844C71.4744 11.984 71.1904 12.054 70.8784 12.054ZM70.8784 11.574C71.0744 11.574 71.2584 11.528 71.4304 11.436C71.6024 11.344 71.7404 11.206 71.8444 11.022C71.9524 10.838 72.0064 10.614 72.0064 10.35C72.0064 10.086 71.9544 9.862 71.8504 9.678C71.7464 9.494 71.6104 9.358 71.4424 9.27C71.2744 9.178 71.0924 9.132 70.8964 9.132C70.6964 9.132 70.5124 9.178 70.3444 9.27C70.1804 9.358 70.0484 9.494 69.9484 9.678C69.8484 9.862 69.7984 10.086 69.7984 10.35C69.7984 10.618 69.8464 10.844 69.9424 11.028C70.0424 11.212 70.1744 11.35 70.3384 11.442C70.5024 11.53 70.6824 11.574 70.8784 11.574ZM74.8843 8.652C75.2843 8.652 75.6083 8.774 75.8563 9.018C76.1043 9.258 76.2283 9.606 76.2283 10.062V12H75.6883V10.14C75.6883 9.812 75.6063 9.562 75.4423 9.39C75.2783 9.214 75.0543 9.126 74.7703 9.126C74.4823 9.126 74.2523 9.216 74.0803 9.396C73.9123 9.576 73.8283 9.838 73.8283 10.182V12H73.2823V8.712H73.8283V9.18C73.9363 9.012 74.0823 8.882 74.2663 8.79C74.4543 8.698 74.6603 8.652 74.8843 8.652ZM80.6158 12.042C80.2278 12.042 79.8738 11.952 79.5538 11.772C79.2338 11.588 78.9798 11.334 78.7918 11.01C78.6078 10.682 78.5158 10.314 78.5158 9.906C78.5158 9.498 78.6078 9.132 78.7918 8.808C78.9798 8.48 79.2338 8.226 79.5538 8.046C79.8738 7.862 80.2278 7.77 80.6158 7.77C81.0078 7.77 81.3638 7.862 81.6838 8.046C82.0038 8.226 82.2558 8.478 82.4398 8.802C82.6238 9.126 82.7158 9.494 82.7158 9.906C82.7158 10.318 82.6238 10.686 82.4398 11.01C82.2558 11.334 82.0038 11.588 81.6838 11.772C81.3638 11.952 81.0078 12.042 80.6158 12.042ZM80.6158 11.568C80.9078 11.568 81.1698 11.5 81.4018 11.364C81.6378 11.228 81.8218 11.034 81.9538 10.782C82.0898 10.53 82.1578 10.238 82.1578 9.906C82.1578 9.57 82.0898 9.278 81.9538 9.03C81.8218 8.778 81.6398 8.584 81.4078 8.448C81.1758 8.312 80.9118 8.244 80.6158 8.244C80.3198 8.244 80.0558 8.312 79.8238 8.448C79.5918 8.584 79.4078 8.778 79.2718 9.03C79.1398 9.278 79.0738 9.57 79.0738 9.906C79.0738 10.238 79.1398 10.53 79.2718 10.782C79.4078 11.034 79.5918 11.228 79.8238 11.364C80.0598 11.5 80.3238 11.568 80.6158 11.568ZM85.0386 8.652C85.4386 8.652 85.7626 8.774 86.0106 9.018C86.2586 9.258 86.3826 9.606 86.3826 10.062V12H85.8426V10.14C85.8426 9.812 85.7606 9.562 85.5966 9.39C85.4326 9.214 85.2086 9.126 84.9246 9.126C84.6366 9.126 84.4066 9.216 84.2346 9.396C84.0666 9.576 83.9826 9.838 83.9826 10.182V12H83.4366V8.712H83.9826V9.18C84.0906 9.012 84.2366 8.882 84.4206 8.79C84.6086 8.698 84.8146 8.652 85.0386 8.652ZM91.4481 7.818V8.262H90.3081V12H89.7621V8.262H88.6161V7.818H91.4481ZM93.7522 8.652C94.0002 8.652 94.2242 8.706 94.4242 8.814C94.6242 8.918 94.7802 9.076 94.8922 9.288C95.0082 9.5 95.0662 9.758 95.0662 10.062V12H94.5262V10.14C94.5262 9.812 94.4442 9.562 94.2802 9.39C94.1162 9.214 93.8922 9.126 93.6082 9.126C93.3202 9.126 93.0902 9.216 92.9182 9.396C92.7502 9.576 92.6662 9.838 92.6662 10.182V12H92.1202V7.56H92.6662V9.18C92.7742 9.012 92.9222 8.882 93.1102 8.79C93.3022 8.698 93.5162 8.652 93.7522 8.652ZM98.9581 10.23C98.9581 10.334 98.9521 10.444 98.9401 10.56H96.3121C96.3321 10.884 96.4421 11.138 96.6421 11.322C96.8461 11.502 97.0921 11.592 97.3801 11.592C97.6161 11.592 97.8121 11.538 97.9681 11.43C98.1281 11.318 98.2401 11.17 98.3041 10.986H98.8921C98.8041 11.302 98.6281 11.56 98.3641 11.76C98.1001 11.956 97.7721 12.054 97.3801 12.054C97.0681 12.054 96.7881 11.984 96.5401 11.844C96.2961 11.704 96.1041 11.506 95.9641 11.25C95.8241 10.99 95.7541 10.69 95.7541 10.35C95.7541 10.01 95.8221 9.712 95.9581 9.456C96.0941 9.2 96.2841 9.004 96.5281 8.868C96.7761 8.728 97.0601 8.658 97.3801 8.658C97.6921 8.658 97.9681 8.726 98.2081 8.862C98.4481 8.998 98.6321 9.186 98.7601 9.426C98.8921 9.662 98.9581 9.93 98.9581 10.23ZM98.3941 10.116C98.3941 9.908 98.3481 9.73 98.2561 9.582C98.1641 9.43 98.0381 9.316 97.8781 9.24C97.7221 9.16 97.5481 9.12 97.3561 9.12C97.0801 9.12 96.8441 9.208 96.6481 9.384C96.4561 9.56 96.3461 9.804 96.3181 10.116H98.3941Z" fill="white"/>
<path d="M93.5181 28.4097H95.1469V17.3981H93.5181V28.4097ZM108.189 21.3646L106.322 26.1388H106.266L104.328 21.3646H102.573L105.479 28.0371L103.823 31.749H105.521L110 21.3646H108.189ZM98.9519 27.1588C98.4176 27.1588 97.6739 26.8902 97.6739 26.2234C97.6739 25.3742 98.6001 25.0483 99.4005 25.0483C100.116 25.0483 100.454 25.2042 100.889 25.4165C100.762 26.4365 99.892 27.1588 98.9519 27.1588ZM99.1483 21.1241C97.969 21.1241 96.7469 21.6482 96.2424 22.8101L97.6879 23.4188C97.9969 22.8101 98.5721 22.611 99.1762 22.611C100.019 22.611 100.875 23.121 100.889 24.0283V24.1411C100.594 23.971 99.9627 23.7165 99.1902 23.7165C97.632 23.7165 96.0451 24.5806 96.0451 26.1952C96.0451 27.6689 97.323 28.6184 98.7546 28.6184C99.8501 28.6184 100.454 28.1225 100.833 27.5411H100.889V28.3912H102.461V24.1692C102.461 22.2146 101.015 21.1241 99.1483 21.1241M89.0821 22.7053H86.7655V18.9308H89.0821C90.2998 18.9308 90.9911 19.9482 90.9911 20.8176C90.9911 21.6711 90.2998 22.7053 89.0821 22.7053ZM89.0402 17.3981H85.1375V28.4097H86.7655V24.2379H89.0402C90.8453 24.2379 92.6199 22.9184 92.6199 20.8176C92.6199 18.7168 90.8453 17.3981 89.0402 17.3981M67.7583 27.1606C66.6332 27.1606 65.6913 26.2102 65.6913 24.9047C65.6913 23.5852 66.6332 22.6198 67.7583 22.6198C68.8695 22.6198 69.7406 23.5852 69.7406 24.9047C69.7406 26.2102 68.8695 27.1606 67.7583 27.1606ZM69.6289 21.9812H69.5722C69.2064 21.5417 68.5038 21.1444 67.6178 21.1444C65.7611 21.1444 64.0599 22.7898 64.0599 24.9047C64.0599 27.0047 65.7611 28.6369 67.6178 28.6369C68.5038 28.6369 69.2064 28.2396 69.5722 27.7851H69.6289V28.3251C69.6289 29.7582 68.8695 30.5246 67.6457 30.5246C66.6471 30.5246 66.0282 29.8005 65.7751 29.1901L64.3549 29.7864C64.7626 30.78 65.8458 32 67.6457 32C69.5582 32 71.1757 30.8646 71.1757 28.0978V21.3708H69.6289V21.9812ZM72.3008 28.4097H73.9322V17.3973H72.3008V28.4097ZM76.3362 24.777C76.2943 23.3298 77.4474 22.5916 78.2766 22.5916C78.9243 22.5916 79.4725 22.9176 79.6549 23.3862L76.3362 24.777ZM81.3989 23.528C81.0899 22.6912 80.1472 21.1444 78.2208 21.1444C76.3083 21.1444 74.7196 22.6621 74.7196 24.8907C74.7196 26.9906 76.2943 28.6369 78.4032 28.6369C80.1053 28.6369 81.0899 27.5869 81.4976 26.9765L80.2319 26.1247C79.8103 26.7493 79.2333 27.1606 78.4032 27.1606C77.5739 27.1606 76.983 26.7774 76.6033 26.0261L81.5674 23.9534L81.3989 23.528ZM41.8501 22.2939V23.883H45.6184C45.5058 24.777 45.2107 25.4297 44.7612 25.8834C44.2121 26.4374 43.3541 27.0479 41.8501 27.0479C39.5291 27.0479 37.7152 25.1602 37.7152 22.8189C37.7152 20.4767 39.5291 18.5899 41.8501 18.5899C43.1018 18.5899 44.0157 19.0867 44.6905 19.7254L45.8017 18.604C44.8589 17.6959 43.6081 17 41.8501 17C38.6719 17 36 19.6117 36 22.8189C36 26.0261 38.6719 28.6369 41.8501 28.6369C43.5653 28.6369 44.8589 28.0688 45.8715 27.0047C46.9129 25.9547 47.2358 24.4793 47.2358 23.2866C47.2358 22.9176 47.2079 22.5775 47.1512 22.2939H41.8501ZM51.5208 27.1606C50.3957 27.1606 49.425 26.2243 49.425 24.8907C49.425 23.5421 50.3957 22.6198 51.5208 22.6198C52.6451 22.6198 53.6158 23.5421 53.6158 24.8907C53.6158 26.2243 52.6451 27.1606 51.5208 27.1606ZM51.5208 21.1444C49.4669 21.1444 47.7936 22.7194 47.7936 24.8907C47.7936 27.0479 49.4669 28.6369 51.5208 28.6369C53.5739 28.6369 55.2472 27.0479 55.2472 24.8907C55.2472 22.7194 53.5739 21.1444 51.5208 21.1444ZM59.65 27.1606C58.5249 27.1606 57.5542 26.2243 57.5542 24.8907C57.5542 23.5421 58.5249 22.6198 59.65 22.6198C60.7752 22.6198 61.745 23.5421 61.745 24.8907C61.745 26.2243 60.7752 27.1606 59.65 27.1606ZM59.65 21.1444C57.597 21.1444 55.9237 22.7194 55.9237 24.8907C55.9237 27.0479 57.597 28.6369 59.65 28.6369C61.7031 28.6369 63.3764 27.0479 63.3764 24.8907C63.3764 22.7194 61.7031 21.1444 59.65 21.1444Z" fill="white"/>
</svg>
