<svg width="58" height="62" viewBox="0 0 58 62" fill="none" xmlns="http://www.w3.org/2000/svg">
<g clip-path="url(#clip0_6164_576)">
<path d="M10.7942 54.5961C10.7691 54.5801 10.7111 54.534 10.6189 54.4589C10.4747 54.6592 10.2484 54.9947 9.93996 55.4663C9.88889 55.5444 9.81779 55.5935 9.72665 55.6135C9.63552 55.6336 9.5484 55.6165 9.46428 55.5615C9.38016 55.5064 9.32909 55.4333 9.31006 55.3412C9.29103 55.249 9.30806 55.1639 9.35913 55.0858L9.76271 54.4699C9.91192 54.2416 10.1483 53.9131 10.4707 53.4845C10.7962 53.0479 11.0335 52.7184 11.1817 52.4951C11.4341 52.1135 11.6614 52.0004 11.8647 52.1566C11.9238 52.1766 11.9989 52.2117 12.092 52.2627C12.1852 52.3138 12.2943 52.3809 12.4215 52.464C12.7099 52.6533 12.9202 52.9237 13.0504 53.2772C13.1946 53.6708 13.1686 54.0173 12.9713 54.3177C12.7249 54.6942 12.3784 54.8965 11.9338 54.9236C11.5403 54.9456 11.1607 54.8364 10.7942 54.5971V54.5961ZM11.9969 53.0008C11.9498 52.9698 11.9078 52.9427 11.8717 52.9197C11.8347 52.8967 11.8036 52.8786 11.7766 52.8656C11.7315 52.9347 11.6624 53.0379 11.5703 53.1761C11.4601 53.3373 11.2799 53.5836 11.0275 53.9131C11.0946 53.9742 11.1407 54.0133 11.1657 54.0293C11.395 54.1795 11.6214 54.2506 11.8447 54.2406C12.083 54.2306 12.2643 54.1294 12.3905 53.9381C12.4726 53.813 12.4696 53.6517 12.3815 53.4555C12.2973 53.2662 12.1692 53.114 11.9969 53.0018V53.0008Z" fill="black"/>
<path d="M15.8436 55.3C15.8126 55.284 15.7825 55.262 15.7525 55.235C15.5362 55.0337 15.3089 54.8704 15.0705 54.7453C14.9533 54.6842 14.8232 54.6271 14.679 54.576C14.5347 54.5249 14.3775 54.4779 14.2073 54.4358C14.0981 54.6431 13.9299 54.9475 13.7016 55.3481C13.7917 55.3882 14.1121 55.5184 14.6609 55.7417C14.9744 55.8689 15.1707 55.953 15.2498 55.994C15.3419 56.0421 15.405 56.1132 15.44 56.2053C15.4751 56.2985 15.4671 56.3926 15.416 56.4898C15.3189 56.675 15.1646 56.7281 14.9533 56.649C14.8242 56.5929 14.6289 56.5108 14.3695 56.4026C14.1352 56.3115 13.7857 56.1663 13.321 55.969C13.2058 56.1613 13.1167 56.3185 13.0526 56.4397C12.8924 56.7451 12.8193 56.9284 12.8323 56.9895C12.8383 57.0185 12.9315 57.0806 13.1107 57.1747C13.2068 57.2258 13.3541 57.2999 13.5513 57.397C13.7486 57.4942 13.8958 57.5683 13.992 57.6194C14.023 57.6354 14.0711 57.6554 14.1372 57.6775C14.2033 57.6995 14.2503 57.7195 14.2804 57.7345C14.3705 57.7816 14.4346 57.8477 14.4717 57.9328C14.5147 58.029 14.5087 58.1291 14.4536 58.2332C14.3615 58.4075 14.2163 58.4646 14.016 58.4025C13.8448 58.3504 13.5133 58.1952 13.0226 57.9378C12.5149 57.6714 12.2194 57.4291 12.1373 57.2108C12.0472 56.9704 12.1333 56.5989 12.3977 56.0952C12.5068 55.8869 12.6871 55.5804 12.9375 55.1779C13.1878 54.7753 13.3671 54.4709 13.4762 54.2636C13.5053 54.2095 13.5393 54.1244 13.5794 54.0092C13.6194 53.894 13.6545 53.8099 13.6835 53.7548C13.8077 53.5175 13.979 53.4564 14.1973 53.5716C14.2654 53.6076 14.3184 53.6597 14.3555 53.7298C14.5598 53.7799 14.7501 53.8359 14.9243 53.899C15.0986 53.9621 15.2588 54.0312 15.404 54.1073C15.7966 54.3136 16.087 54.5239 16.2752 54.7372C16.3904 54.8674 16.4094 55.0036 16.3343 55.1468C16.2923 55.2279 16.2262 55.285 16.137 55.3181C16.0369 55.3571 15.9388 55.3511 15.8426 55.3H15.8436Z" fill="black"/>
<path d="M19.2487 56.9253C19.1205 56.8752 18.9252 56.7881 18.6619 56.6649C18.4085 56.5447 18.2122 56.4586 18.074 56.4065C18.0069 56.5958 17.8998 56.9373 17.7496 57.431C17.6184 57.8676 17.5052 58.2091 17.4091 58.4545C17.387 58.5105 17.361 58.5957 17.329 58.7098C17.2969 58.824 17.2709 58.9091 17.2488 58.9652C17.2008 59.0884 17.1317 59.1885 17.0405 59.2666C16.9234 59.3668 16.8032 59.3918 16.679 59.3437C16.5889 59.3087 16.5208 59.2486 16.4737 59.1645C16.4217 59.0703 16.4147 58.9752 16.4527 58.8781C16.4617 58.855 16.4797 58.822 16.5058 58.7779C16.5318 58.7349 16.5498 58.6998 16.5599 58.6758C16.5889 58.6007 16.629 58.4845 16.677 58.3273C16.7261 58.1711 16.7652 58.0539 16.7962 57.9768C16.8823 57.7575 16.9815 57.453 17.0936 57.0635C17.2228 56.6168 17.3159 56.3104 17.374 56.1442L17.2458 56.0941C16.8803 55.9509 16.5999 55.8117 16.4056 55.6745C16.2414 55.5593 16.1923 55.4161 16.2584 55.2459C16.2915 55.1628 16.3506 55.0987 16.4357 55.0546C16.5358 55.0015 16.64 55.0005 16.7481 55.0526C16.8042 55.0786 16.9294 55.1437 17.1227 55.2469C17.2779 55.328 17.4051 55.3891 17.5052 55.4281C17.6054 55.4672 17.7556 55.5243 17.9559 55.5984C18.1561 55.6735 18.3064 55.7296 18.4065 55.7686C18.5307 55.8177 18.7149 55.8988 18.9573 56.014C19.1996 56.1281 19.3829 56.2103 19.5081 56.2593C19.6062 56.2974 19.6763 56.3625 19.7174 56.4516C19.7584 56.5417 19.7614 56.6329 19.7244 56.727C19.6873 56.8201 19.6232 56.8862 19.5321 56.9253C19.44 56.9643 19.3458 56.9643 19.2467 56.9253H19.2487Z" fill="black"/>
<path d="M22.5591 61.2004C22.1194 61.1183 21.791 60.957 21.5747 60.7137C21.3924 60.5114 21.3203 60.3041 21.3604 60.0908C21.3804 59.9816 21.4304 59.8975 21.5096 59.8374C21.5887 59.7773 21.6858 59.7583 21.802 59.7804C21.9582 59.8094 22.0573 59.9105 22.1004 60.0828C22.1595 60.3141 22.3628 60.4623 22.7113 60.5264C23.0087 60.5815 23.3091 60.5705 23.6116 60.4924C23.925 60.4133 24.0973 60.2931 24.1263 60.1339C24.1664 59.9155 24.1033 59.7553 23.936 59.6532C23.8169 59.5791 23.5655 59.502 23.181 59.4218C22.8825 59.3597 22.6252 59.2536 22.4078 59.1034C22.1144 58.9001 21.9953 58.6648 22.0503 58.3974C22.1184 58.0609 22.3558 57.7845 22.7624 57.5692C23.1689 57.3539 23.5865 57.2858 24.0141 57.3649C24.1834 57.3959 24.3857 57.474 24.621 57.5982C24.9124 57.7524 25.0466 57.8926 25.0236 58.0198C25.0066 58.11 24.9615 58.1841 24.8854 58.2411C24.8013 58.3062 24.7051 58.3283 24.596 58.3082C24.5149 58.2932 24.3967 58.2532 24.2405 58.1891C24.0842 58.125 23.9661 58.0839 23.883 58.0689C23.6596 58.0288 23.4373 58.0439 23.217 58.112C22.9897 58.1811 22.8635 58.2782 22.8405 58.4044C22.8285 58.4705 22.8495 58.5296 22.9056 58.5846C22.9606 58.6387 23.0498 58.6858 23.1729 58.7268C23.3923 58.7799 23.6106 58.833 23.8279 58.8861C24.2064 58.9872 24.4898 59.1515 24.6791 59.3798C24.8864 59.6331 24.9555 59.9436 24.8874 60.3101C24.8043 60.7567 24.4868 61.0482 23.936 61.1834C23.5154 61.2865 23.0568 61.2915 22.5581 61.1984L22.5591 61.2004Z" fill="black"/>
<path d="M28.2265 58.3152C28.1914 58.3122 28.1554 58.3042 28.1173 58.2912C27.8389 58.1931 27.5655 58.134 27.2961 58.1139C27.165 58.1039 27.0227 58.1039 26.8695 58.1139C26.7163 58.1239 26.5541 58.143 26.3808 58.173C26.3638 58.4064 26.3298 58.7529 26.2797 59.2115C26.3788 59.2115 26.7243 59.2045 27.3162 59.1905C27.6536 59.1825 27.868 59.1815 27.9571 59.1875C28.0602 59.1955 28.1474 59.2345 28.2155 59.3056C28.2836 59.3767 28.3146 59.4669 28.3066 59.576C28.2916 59.7853 28.1704 59.8955 27.9461 59.9065C27.8049 59.9065 27.5936 59.9085 27.3132 59.9125C27.0618 59.9225 26.6833 59.9285 26.1785 59.9315C26.1495 60.1539 26.1305 60.3331 26.1205 60.4703C26.0954 60.8148 26.1004 61.0121 26.1375 61.0622C26.1555 61.0862 26.2647 61.1062 26.467 61.1212C26.5761 61.1293 26.7403 61.1393 26.9597 61.1503C27.179 61.1613 27.3442 61.1703 27.4524 61.1793C27.4874 61.1823 27.5395 61.1803 27.6086 61.1753C27.6777 61.1703 27.7288 61.1683 27.7628 61.1713C27.865 61.1793 27.9491 61.2144 28.0172 61.2775C28.0953 61.3486 28.1293 61.4427 28.1203 61.5609C28.1053 61.7571 27.9941 61.8673 27.7858 61.8913C27.6076 61.9114 27.2421 61.9014 26.6893 61.8603C26.1175 61.8182 25.7499 61.7131 25.5877 61.5458C25.4084 61.3616 25.3403 60.986 25.3824 60.4182C25.3994 60.1829 25.4435 59.8314 25.5126 59.3617C25.5817 58.8921 25.6247 58.5415 25.6418 58.3082C25.6468 58.2471 25.6448 58.155 25.6358 58.0338C25.6267 57.9126 25.6247 57.8205 25.6298 57.7594C25.6498 57.493 25.782 57.3679 26.0283 57.3869C26.1054 57.3929 26.1745 57.4199 26.2366 57.469C26.4439 57.433 26.6402 57.4089 26.8255 57.3979C27.0107 57.3859 27.185 57.3859 27.3482 57.3979C27.7908 57.431 28.1403 57.5081 28.3977 57.6292C28.5549 57.7023 28.627 57.8205 28.615 57.9817C28.608 58.0729 28.571 58.151 28.5019 58.2171C28.4258 58.2922 28.3336 58.3262 28.2245 58.3182L28.2265 58.3152Z" fill="black"/>
<path d="M31.6462 61.6751C31.551 61.6781 31.4629 61.6441 31.3818 61.572C30.834 61.0883 30.2381 60.7588 29.5932 60.5846C29.6273 61.0963 29.6463 61.3797 29.6473 61.4358C29.6503 61.5359 29.6173 61.622 29.5492 61.6931C29.4811 61.7642 29.3939 61.8023 29.2888 61.8053C29.1836 61.8083 29.0945 61.7763 29.0214 61.7092C28.9493 61.6421 28.9112 61.5579 28.9082 61.4578C28.9042 61.3256 28.9002 61.1283 28.8962 60.865C28.8922 60.6016 28.8882 60.4043 28.8842 60.2721L28.8261 58.1421C28.8231 58.0279 28.8542 57.9227 28.9203 57.8276C29.0064 57.7054 29.1286 57.6483 29.2878 57.6554C29.7164 57.6744 29.9357 57.6844 29.9467 57.6864C30.1941 57.7094 30.4054 57.7615 30.5806 57.8446C31.3427 58.2011 31.7323 58.6588 31.7493 59.2176C31.7563 59.4479 31.6832 59.6542 31.531 59.8355C31.3788 60.0167 31.1474 60.173 30.836 60.3042C31.3097 60.5505 31.6692 60.8059 31.9125 61.0703C31.9756 61.1383 32.0097 61.2165 32.0117 61.3026C32.0147 61.4007 31.9806 61.4868 31.9085 61.5609C31.8364 61.6351 31.7503 61.6731 31.6482 61.6751H31.6462ZM29.8556 58.4044C29.8416 58.4034 29.7384 58.3994 29.5462 58.3924L29.5872 59.7944C29.6313 59.7944 29.6703 59.7944 29.7034 59.7944C30.134 59.7814 30.4525 59.7183 30.6567 59.6052C30.7449 59.5571 30.826 59.494 30.8981 59.4159C30.9702 59.3378 31.0062 59.2797 31.0052 59.2406C30.9992 59.0433 30.8691 58.8571 30.6137 58.6818C30.3713 58.5166 30.118 58.4245 29.8556 58.4054V58.4044Z" fill="black"/>
<path d="M33.9025 60.2831C34.0737 59.5841 34.2039 59.0283 34.294 58.6157C34.3421 58.3974 34.3892 58.1791 34.4342 57.9588C34.5023 57.6964 34.5865 57.4911 34.6866 57.3399C34.7527 57.2398 34.8408 57.1827 34.95 57.1677C35.0491 57.1536 35.1413 57.1757 35.2254 57.2348C35.3095 57.2928 35.3596 57.372 35.3726 57.4711C35.3826 57.5412 35.3686 57.6133 35.3305 57.6874C35.2554 57.8366 35.1923 58.0129 35.1403 58.2152C35.1372 58.2232 35.0972 58.4044 35.0191 58.7599C34.9179 59.1845 34.7687 59.8215 34.5704 60.6697C34.5194 60.892 34.4503 61.1163 34.3631 61.3436C34.3071 61.4898 34.2079 61.573 34.0647 61.593C33.8835 61.618 33.7453 61.5499 33.6501 61.3897C33.3667 60.912 33.0282 60.213 32.6357 59.2937C32.5315 59.0684 32.4264 58.8431 32.3202 58.6177C32.177 58.3033 32.0959 58.083 32.0789 57.9558C32.0649 57.8526 32.0909 57.7625 32.158 57.6834C32.2221 57.6103 32.3032 57.5672 32.4013 57.5532C32.5686 57.5302 32.6978 57.6013 32.7879 57.7655C32.844 57.9127 32.9 58.0579 32.9551 58.2031C33.0392 58.3834 33.1614 58.6548 33.3216 59.0163C33.5269 59.496 33.7202 59.9176 33.9005 60.2821L33.9025 60.2831Z" fill="black"/>
<path d="M37.9019 57.4271C37.8198 57.4471 37.5895 57.4781 37.2099 57.5202C37.263 57.8406 37.3531 58.2612 37.4813 58.783L37.7607 59.9346C37.9871 59.8736 38.2184 59.8145 38.4537 59.7564C38.5559 59.7314 38.65 59.7444 38.7341 59.7964C38.8182 59.8485 38.8723 59.9216 38.8954 60.0178C38.9184 60.1139 38.9044 60.204 38.8523 60.2881C38.8002 60.3723 38.7211 60.4273 38.616 60.4534C38.5178 60.4774 38.3716 60.5155 38.1773 60.5675C37.983 60.6196 37.8368 60.6577 37.7387 60.6817C37.6235 60.7098 37.4543 60.7668 37.231 60.854C37.0077 60.9401 36.8384 60.9982 36.7232 61.0262C36.6181 61.0522 36.523 61.0392 36.4378 60.9892C36.3527 60.9381 36.2976 60.865 36.2746 60.7698C36.2516 60.6747 36.2676 60.5836 36.3227 60.4974C36.3777 60.4113 36.4609 60.3552 36.57 60.3282C36.6942 60.2982 36.8544 60.2451 37.0517 60.169C36.9986 59.9677 36.9025 59.5821 36.7623 59.0113C36.6481 58.5467 36.557 58.098 36.4869 57.6674L35.9341 57.8196C35.832 57.8446 35.7378 57.8326 35.6517 57.7826C35.5656 57.7325 35.5115 57.6584 35.4865 57.5592C35.4614 57.4581 35.4745 57.368 35.5255 57.2889C35.5726 57.2158 35.6397 57.1637 35.7268 57.1336C35.869 57.0846 36.1214 57.0155 36.4819 56.9263C36.8064 56.8472 37.234 56.7801 37.7637 56.7261C37.975 56.705 38.1052 56.7982 38.1563 57.0054C38.1833 57.1146 38.1653 57.2107 38.1012 57.2939C38.0491 57.363 37.983 57.407 37.9009 57.4271H37.9019Z" fill="black"/>
<path d="M41.1636 56.6641C41.0144 56.7162 40.8762 56.6761 40.749 56.5439C40.69 56.4809 40.6409 56.4478 40.6018 56.4448C40.5728 56.4418 40.5047 56.4588 40.3985 56.4969C40.1892 56.571 40.005 56.8183 39.8457 57.2399C39.6224 57.8298 39.5804 58.3235 39.7196 58.7201C39.7837 58.9013 39.8988 59.0345 40.0651 59.1216C40.2323 59.2088 40.3995 59.2218 40.5698 59.1627C40.734 59.1046 40.8862 59.0035 41.0244 58.8573C41.0735 58.8042 41.1706 58.679 41.3168 58.4797C41.416 58.3475 41.4991 58.2704 41.5652 58.2464C41.6653 58.2113 41.7625 58.2183 41.8576 58.2664C41.9468 58.3115 42.0058 58.3786 42.0369 58.4667C42.0709 58.5648 42.0579 58.665 41.9978 58.7691C41.6764 59.3149 41.2798 59.6714 40.8061 59.8377C40.4326 59.9689 40.0691 59.9438 39.7156 59.7626C39.3771 59.5863 39.1457 59.3209 39.0206 58.9654C38.8253 58.4096 38.8683 57.7557 39.1508 57.0046C39.3911 56.3677 39.7276 55.9731 40.1592 55.8209C40.2323 55.7949 40.2994 55.7748 40.3595 55.7588C40.4206 55.7428 40.4746 55.7328 40.5227 55.7268C40.5708 55.6296 40.6459 55.5635 40.749 55.5265C40.9183 55.4674 41.0575 55.5265 41.1656 55.7078C41.2427 55.8369 41.3138 55.9952 41.3799 56.1814C41.409 56.2645 41.412 56.3487 41.388 56.4338C41.3559 56.546 41.2808 56.6221 41.1616 56.6651L41.1636 56.6641Z" fill="black"/>
<path d="M43.9316 54.7662C43.8995 54.7812 43.8645 54.7922 43.8244 54.7992C43.534 54.8513 43.2666 54.9354 43.0233 55.0506C42.9041 55.1067 42.7799 55.1778 42.6527 55.2609C42.5246 55.345 42.3934 55.4422 42.2572 55.5533C42.3573 55.7646 42.4995 56.0821 42.6828 56.5057C42.7689 56.4576 43.0663 56.2804 43.5741 55.9749C43.8635 55.8007 44.0487 55.6945 44.1299 55.6565C44.224 55.6124 44.3181 55.6034 44.4133 55.6314C44.5084 55.6595 44.5795 55.7226 44.6256 55.8217C44.7157 56.011 44.6656 56.1662 44.4753 56.2874C44.3522 56.3575 44.1699 56.4636 43.9276 56.6048C43.7133 56.737 43.3878 56.9293 42.9502 57.1816C43.0343 57.3889 43.1064 57.5542 43.1655 57.6784C43.3127 57.9898 43.4158 58.159 43.4729 58.1841C43.4999 58.1961 43.6051 58.159 43.7884 58.0729C43.8875 58.0259 44.0347 57.9538 44.231 57.8546C44.4273 57.7555 44.5755 57.6824 44.6736 57.6363C44.7057 57.6213 44.7497 57.5942 44.8078 57.5552C44.8649 57.5161 44.909 57.4901 44.939 57.4751C45.0311 57.431 45.1223 57.42 45.2124 57.442C45.3145 57.4651 45.3917 57.5301 45.4417 57.6373C45.5258 57.8156 45.4838 57.9658 45.3135 58.0889C45.1683 58.1941 44.8459 58.3663 44.3452 58.6037C43.8264 58.849 43.4549 58.9392 43.2316 58.8741C42.9852 58.802 42.7399 58.5085 42.4965 57.9948C42.3954 57.7815 42.2592 57.454 42.0879 57.0124C41.9167 56.5708 41.7805 56.2443 41.6803 56.032C41.6543 55.9759 41.6072 55.8978 41.5391 55.7967C41.472 55.6955 41.425 55.6164 41.3979 55.5613C41.2838 55.319 41.3379 55.1457 41.5602 55.0406C41.6303 55.0075 41.7044 54.9965 41.7815 55.0085C41.9437 54.8753 42.103 54.7572 42.2582 54.655C42.4134 54.5529 42.5656 54.4668 42.7128 54.3967C43.1134 54.2064 43.4559 54.1012 43.7403 54.0792C43.9125 54.0652 44.0337 54.1323 44.1028 54.2785C44.1419 54.3616 44.1479 54.4477 44.1208 54.5389C44.0918 54.642 44.0277 54.7171 43.9296 54.7642L43.9316 54.7662Z" fill="black"/>
<path d="M47.3946 56.8602C47.0141 57.0946 46.6616 57.1947 46.3391 57.1607C46.0677 57.1336 45.8755 57.0275 45.7623 56.8432C45.7042 56.7491 45.6842 56.6529 45.7032 56.5558C45.7222 56.4587 45.7813 56.3785 45.8815 56.3175C46.0167 56.2343 46.1579 56.2423 46.3061 56.3415C46.5054 56.4727 46.7557 56.4456 47.0561 56.2604C47.3135 56.1011 47.5288 55.8918 47.7011 55.6305C47.8803 55.3611 47.9274 55.1568 47.8423 55.0196C47.7261 54.8303 47.5709 54.7542 47.3786 54.7903C47.2404 54.8153 47.0031 54.9275 46.6636 55.1257C46.4002 55.28 46.1378 55.3741 45.8765 55.4092C45.5229 55.4552 45.2766 55.3611 45.1374 55.1268C44.9621 54.8313 44.9521 54.4678 45.1094 54.0352C45.2666 53.6026 45.53 53.2721 45.9005 53.0438C46.0477 52.9536 46.249 52.8755 46.5064 52.8094C46.8268 52.7283 47.0201 52.7423 47.0872 52.8515C47.1353 52.9296 47.1503 53.0147 47.1333 53.1079C47.1152 53.212 47.0581 53.2931 46.964 53.3522C46.8939 53.3953 46.7787 53.4453 46.6205 53.5024C46.4623 53.5585 46.3471 53.6096 46.275 53.6536C46.0827 53.7748 45.9275 53.934 45.8104 54.1323C45.6882 54.3366 45.6601 54.4928 45.7272 54.602C45.7623 54.6591 45.8184 54.6891 45.8955 54.6921C45.9726 54.6951 46.0707 54.6701 46.1899 54.618C46.3882 54.5099 46.5855 54.4027 46.7828 54.2966C47.1313 54.1173 47.4517 54.0482 47.7451 54.0913C48.0686 54.1403 48.329 54.3226 48.5242 54.6411C48.7626 55.0276 48.7225 55.4562 48.4051 55.9269C48.1627 56.2854 47.8252 56.5979 47.3946 56.8632V56.8602Z" fill="black"/>
<path d="M13.9549 30.9745C13.9889 30.9504 14.026 30.9294 14.057 30.9014C14.8141 30.2254 15.7144 29.8419 16.6948 29.6336C17.3247 29.5004 17.9606 29.4603 18.6035 29.5534C20.0396 29.7617 21.0761 30.5008 21.6499 31.8427C21.9683 32.5878 22.1276 33.3749 22.1236 34.1871C22.1175 35.3608 21.727 36.3962 20.9609 37.2875C20.341 38.0075 19.5759 38.5313 18.7227 38.9349C17.8104 39.3675 16.85 39.5988 15.8416 39.6709C14.9192 39.737 13.9969 39.743 13.0756 39.716C11.7898 39.6769 10.529 39.4766 9.31022 39.048C6.75256 38.1487 4.99204 36.4143 3.96257 33.9217C3.58803 33.0154 3.3537 32.07 3.23052 31.0967C3.16342 30.5689 3.12036 30.0391 3.11235 29.5074C3.08731 27.7889 3.43381 26.1476 4.1238 24.5743C4.52137 23.668 5.01307 22.8138 5.5248 21.9696C6.33797 20.6277 7.27931 19.3819 8.34684 18.2362C10.0383 16.4217 11.959 14.8945 14.1321 13.6867C16.6718 12.2747 19.3566 11.2613 22.1987 10.6594C23.1971 10.4481 24.2025 10.2819 25.215 10.1637C26.4768 10.0165 27.7446 9.94238 29.0154 9.92736C30.091 9.91434 31.1645 9.94037 32.238 9.99946C32.932 10.0375 33.624 10.0916 34.315 10.1657C35.2964 10.2708 36.2728 10.4131 37.2442 10.5943C38.5561 10.8387 39.8499 11.1551 41.1248 11.5487C43.3109 12.2246 45.3698 13.181 47.3356 14.3477C48.4512 15.0096 49.4817 15.7817 50.4591 16.6289C50.6233 16.7712 50.7876 16.9124 50.9578 17.0485C51.5447 17.5182 52.0784 18.042 52.5611 18.6178C52.6172 18.6839 52.6743 18.75 52.7354 18.8111C53.844 19.9417 54.7432 21.2305 55.5804 22.5654C56.1803 23.5218 56.7201 24.5112 57.1477 25.5587C57.4852 26.3849 57.7415 27.2351 57.8777 28.1164C57.9939 28.8685 58.0299 29.6255 57.9749 30.3886C57.8827 31.6775 57.6093 32.9213 57.0766 34.0989C55.8318 36.8489 53.7709 38.7306 50.9518 39.7851C49.8132 40.2117 48.6285 40.412 47.4138 40.411C45.8595 40.41 44.3814 40.0665 42.9874 39.3755C42.4717 39.1201 41.972 38.8377 41.5043 38.4992C41.0707 38.1858 40.6811 37.8253 40.3476 37.4077C39.7217 36.6236 39.183 35.7874 38.8485 34.833C38.6752 34.3383 38.5611 33.8326 38.5551 33.3068C38.5431 32.3555 38.8775 31.5473 39.5735 30.8944C40.2805 30.2304 41.1157 29.8138 42.0631 29.6306C42.9794 29.4533 43.8767 29.5484 44.7529 29.8629C45.3588 30.0802 45.9256 30.3726 46.4474 30.7502C46.6406 30.8904 46.8339 31.0296 47.0242 31.1668C47.0663 31.1387 47.0572 31.1097 47.0442 31.0826C46.6697 30.3115 46.2921 29.5434 45.8365 28.8154C44.8621 27.2582 43.4961 26.1866 41.7807 25.5497C41.2169 25.3404 40.632 25.2252 40.0322 25.2092C39.204 25.1872 38.4189 25.3795 37.6738 25.739C37.1931 25.9713 36.7515 26.2657 36.3359 26.6012C36.0605 26.8235 35.8662 27.1109 35.686 27.4094C35.3825 27.9121 35.1402 28.4449 34.9219 28.9886C34.5013 30.0371 34.1638 31.1117 33.9465 32.2213C33.6551 33.7034 33.7472 35.1565 34.313 36.5675C34.6355 37.3726 35.1031 38.0867 35.695 38.7186C36.6894 39.7811 37.8721 40.5702 39.216 41.121C39.6516 41.2993 40.1043 41.3954 40.574 41.4254C41.1368 41.4615 41.6996 41.5015 42.2624 41.5526C42.662 41.5887 43.0545 41.6678 43.4381 41.794C44.3614 42.0974 44.9743 42.7113 45.2617 43.6356C45.7664 45.2619 45.495 46.742 44.3884 48.0529C43.9508 48.5707 43.4361 49.0013 42.8763 49.3818C41.974 49.9947 40.9966 50.4604 39.9841 50.8559C38.7303 51.3456 37.4475 51.7422 36.1266 52.0076C35.4777 52.1378 34.8237 52.2329 34.1658 52.308C32.5965 52.4883 31.0223 52.4692 29.449 52.4072C28.6148 52.3741 27.7807 52.307 26.9495 52.2199C25.1569 52.0316 23.3854 51.7262 21.6579 51.1924C20.4522 50.8199 19.2905 50.3452 18.207 49.6923C17.1554 49.0594 16.2271 48.2853 15.479 47.3048C15.2677 47.0285 15.0755 46.74 14.9012 46.4396C14.6118 45.9409 14.5367 45.4021 14.5988 44.8373C14.7079 43.8419 15.2127 43.0938 16.0389 42.551C16.5987 42.1835 17.2135 41.9512 17.8655 41.807C18.3742 41.6948 18.8899 41.6187 19.4057 41.5516C21.4937 41.2812 23.2311 40.3439 24.6622 38.8147C25.3622 38.0656 25.9621 37.2475 26.4357 36.3331C26.7001 35.8214 26.8543 35.2917 26.8724 34.7158C26.9044 33.7064 26.9284 32.6959 26.8133 31.6905C26.6771 30.5088 26.4137 29.3622 25.8579 28.2976C25.7377 28.0663 25.6015 27.845 25.4593 27.6267C24.8845 26.7444 24.0794 26.1706 23.0879 25.8431C22.1135 25.5207 21.1171 25.4446 20.0997 25.5707C18.7978 25.732 17.6281 26.2147 16.5997 27.0238C16.0088 27.4885 15.4951 28.0353 15.0695 28.6582C14.6889 29.214 14.3514 29.7948 14.0931 30.4187C14.035 30.5589 13.9859 30.7021 13.9348 30.8453C13.9208 30.8843 13.9168 30.9274 13.9539 30.9725L13.9549 30.9745Z" fill="black"/>
<path d="M3.93044 15.414C4.03659 15.3299 4.06563 15.2107 4.1107 15.1016C4.321 14.5868 4.44918 14.0511 4.5303 13.5023C4.58337 13.1448 4.52229 12.8193 4.30598 12.5169C4.01556 12.1113 3.74617 11.6917 3.46677 11.2781C3.31456 11.0518 3.19539 10.8094 3.14031 10.54C3.09224 10.3027 3.09925 10.0684 3.16434 9.83304C3.31155 9.30728 3.85333 8.88268 4.55033 9.14105C4.72457 9.20514 4.8818 9.30027 5.02701 9.41644C5.27536 9.61573 5.47565 9.85607 5.6529 10.1174C5.82415 10.3688 5.96134 10.6402 6.09954 10.9096C6.19368 11.0928 6.2808 11.2791 6.38195 11.4584C6.45105 11.5805 6.52816 11.7007 6.62029 11.8059C6.86964 12.0933 7.13803 12.0993 7.4004 11.8299C7.4685 11.7608 7.52759 11.6817 7.58767 11.6046C7.6748 11.4934 7.75792 11.3803 7.84604 11.2701C7.92816 11.1679 8.02229 11.0788 8.13145 11.0057C8.34175 10.8655 8.56707 10.8285 8.81343 10.9026C9.41729 11.0848 9.7017 11.5625 9.57552 12.1784C9.52244 12.4388 9.41529 12.6741 9.26307 12.8874C8.80141 13.5373 8.17651 13.9329 7.38738 14.0631C7.23817 14.0881 7.08696 14.1041 6.93574 14.1172C6.66936 14.1402 6.49411 14.2614 6.42 14.5308C6.32286 14.8853 6.2117 15.2368 6.10355 15.5883C5.98838 15.9608 5.8632 16.3313 5.67594 16.6748C5.58781 16.8361 5.49167 16.9953 5.38152 17.1415C5.03402 17.6012 4.56334 17.7604 4.00254 17.6763C3.622 17.6192 3.2725 17.479 2.94703 17.2737C2.61456 17.0634 2.31613 16.812 2.05175 16.5236C1.12042 15.5072 0.474493 14.3285 0.0809297 13.0096C0.00582226 12.7592 -0.0392422 12.5049 0.0408724 12.2415C0.159042 11.8539 0.408398 11.6016 0.801962 11.5205C1.21055 11.4353 1.55103 11.5675 1.79138 11.921C1.92557 12.1193 2.03473 12.3316 2.13186 12.5489C2.27707 12.8754 2.41527 13.2049 2.55647 13.5333C2.76777 14.024 3.04317 14.4767 3.36363 14.9023C3.45476 15.0235 3.56091 15.1326 3.66606 15.2418C3.74017 15.3189 3.82529 15.385 3.93044 15.411V15.414Z" fill="black"/>
<path d="M34.3009 4.02387C34.2308 4.01185 34.2108 4.05591 34.1878 4.08896C34.1027 4.21414 34.0205 4.34232 33.9364 4.4685C33.8523 4.59468 33.7702 4.72287 33.6831 4.84704C33.2955 5.39583 32.3992 5.48395 31.9205 4.93417C31.8284 4.82802 31.7383 4.71886 31.6472 4.61071C31.5791 4.53059 31.522 4.43846 31.4318 4.38238C31.3567 4.41943 31.3818 4.48052 31.3818 4.52859C31.3828 4.99526 31.3798 5.46192 31.3948 5.92859C31.4008 6.10484 31.3347 6.21801 31.1975 6.30713C30.8781 6.51343 30.5366 6.5615 30.171 6.45535C29.9818 6.40027 29.8486 6.2861 29.7635 6.10885C29.6553 5.88353 29.5712 5.64819 29.5021 5.40885C29.2197 4.43646 29.0554 3.44404 28.9924 2.43359C28.9733 2.12815 28.9954 1.82472 29.0474 1.52529C29.1546 0.91041 29.6283 0.597963 30.0419 0.542884C30.2872 0.509837 30.5185 0.544887 30.7338 0.662054C30.848 0.724143 30.9552 0.800252 31.0563 0.880367C31.526 1.2519 31.9556 1.66549 32.3321 2.13216C32.4263 2.24933 32.5114 2.37651 32.6536 2.46463C32.6977 2.40755 32.7387 2.35948 32.7748 2.30741C33.1203 1.80769 33.4577 1.30297 33.7752 0.784229C33.8543 0.655044 33.9384 0.527862 34.0306 0.40769C34.4652 -0.162125 35.3975 -0.144099 35.7981 0.523857C35.9854 0.836304 36.0785 1.1808 36.1366 1.5353C36.2117 1.98495 36.2387 2.4406 36.2688 2.89525C36.2938 3.27379 36.3238 3.65233 36.3559 4.03088C36.405 4.60369 36.459 5.17652 36.5111 5.74933C36.5321 5.97866 36.5111 6.20599 36.46 6.42831C36.3759 6.80284 36.1516 7.03417 35.765 7.11028C35.3805 7.18539 35.053 7.10828 34.8037 6.79383C34.6875 6.64762 34.6204 6.47738 34.5663 6.29812C34.4361 5.8675 34.4211 5.42187 34.3931 4.97823C34.3721 4.65677 34.343 4.33731 34.3009 4.02286V4.02387Z" fill="black"/>
<path d="M38.1626 5.04743C38.1526 4.5367 38.2057 4.02997 38.2678 3.52425C38.3008 3.25486 38.3208 2.98448 38.3549 2.71609C38.3749 2.55486 38.3979 2.39263 38.444 2.23741C38.5802 1.78276 38.9898 1.51938 39.4695 1.56244C39.9552 1.6065 40.3317 1.96101 40.3738 2.43469C40.4088 2.82425 40.3828 3.21481 40.3407 3.60436C40.2746 4.21924 40.2085 4.83412 40.2356 5.45401C40.2426 5.61824 40.2666 5.77747 40.3117 5.9347C40.3417 6.03985 40.3848 6.13799 40.4499 6.22712C40.51 6.30923 40.559 6.32526 40.6422 6.27819C40.7173 6.23513 40.7914 6.18906 40.8605 6.13699C41.4193 5.71638 41.905 5.22468 42.3065 4.65086C42.5158 4.35243 42.65 4.02697 42.665 3.65544C42.6731 3.47117 42.7001 3.28791 42.7241 3.10565C42.7371 3.00951 42.7572 2.91337 42.7842 2.82024C42.9034 2.40565 43.2509 2.10422 43.6304 2.06816C44.1141 2.0211 44.5147 2.33655 44.6609 2.66702C44.8352 3.06159 44.8962 3.47518 44.8412 3.90579C44.7771 4.40651 44.6178 4.87718 44.3785 5.31882C43.7346 6.50952 42.8293 7.45387 41.6726 8.15688C41.4213 8.3101 41.1519 8.41725 40.8585 8.46832C40.3638 8.55445 39.9101 8.4493 39.4885 8.18992C39.0719 7.93356 38.7635 7.57605 38.5492 7.13542C38.3128 6.65072 38.1997 6.13498 38.1646 5.60022C38.1526 5.41696 38.1626 5.23169 38.1626 5.04743Z" fill="black"/>
<path d="M12.4154 8.68348C12.6107 8.52725 12.7639 8.36102 12.9081 8.18476C13.0994 7.94943 13.2937 7.71509 13.493 7.48576C13.6292 7.33054 13.7824 7.19134 13.9606 7.08419C14.3342 6.85786 14.7097 6.87789 15.0622 7.11623C15.4087 7.35057 15.5369 7.69506 15.4868 8.10665C15.4748 8.20579 15.4318 8.29392 15.3797 8.37704C15.3336 8.45014 15.2825 8.52125 15.2245 8.58534C14.8089 9.04399 14.4423 9.54371 14.0508 10.0224C13.7964 10.3338 13.533 10.6363 13.2226 10.8946C13.0634 11.0268 12.8931 11.142 12.7048 11.2291C12.5136 11.3172 12.3133 11.3503 12.103 11.3403C11.8426 11.3273 11.6183 11.2351 11.433 11.0499C11.2868 10.9037 11.1606 10.7414 11.0425 10.5722C10.7811 10.1976 10.5608 9.79907 10.3505 9.3955C10.1913 9.08806 10.043 8.77361 9.88782 8.46316C9.68052 8.04556 9.47322 7.62897 9.26292 7.21337C9.07165 6.83583 8.88438 6.45729 8.80727 6.03569C8.78324 5.9065 8.77422 5.77632 8.79626 5.64713C8.86535 5.23454 9.20985 4.91909 9.64747 4.87302C10.0841 4.82696 10.4336 4.97116 10.6729 5.35571C10.8452 5.63211 10.9904 5.92353 11.1286 6.21695C11.387 6.76573 11.6403 7.31752 11.9007 7.86531C11.9838 8.04156 12.08 8.2118 12.1761 8.38104C12.2352 8.48419 12.2933 8.58934 12.4134 8.68248L12.4154 8.68348Z" fill="black"/>
<path d="M16.7937 4.88799C16.7767 4.88799 16.6895 4.89801 16.6034 4.896C16.1317 4.89 15.7562 4.56453 15.6781 4.09886C15.604 3.65323 15.7692 3.31674 16.1738 3.10244C16.288 3.04135 16.4071 2.98827 16.5273 2.9392C16.6976 2.87011 16.8167 2.76095 16.8778 2.58169C16.9199 2.45952 16.99 2.34736 17.0491 2.23219C17.2193 1.89771 17.6109 1.72647 17.9834 1.78555C18.1216 1.80759 18.2608 1.84163 18.391 1.89171C18.7004 2.01188 19.0019 2.00487 19.3053 1.87568C19.4345 1.8206 19.5677 1.77053 19.7039 1.74149C20.1295 1.64936 20.496 1.80859 20.7053 2.1651C20.9166 2.52461 20.8835 2.97325 20.6162 3.2887C20.4669 3.46396 20.2837 3.60015 20.0814 3.7073C19.9382 3.78341 19.788 3.8455 19.6418 3.9156C19.4124 4.02576 19.3764 4.10287 19.4365 4.35423C19.4966 4.60759 19.5967 4.84794 19.6948 5.08828C19.8881 5.55895 20.0874 6.02662 20.2777 6.4983C20.3828 6.75967 20.47 7.02605 20.534 7.30145C20.5721 7.46468 20.5391 7.59987 20.4509 7.73106C20.3288 7.91432 20.1735 8.06454 19.9913 8.18571C19.6688 8.39802 19.3393 8.39201 19.0119 8.19773C18.8126 8.07956 18.6644 7.90631 18.5342 7.71704C18.3179 7.40159 18.1627 7.0561 18.0345 6.69959C17.8933 6.30202 17.7691 5.89844 17.6349 5.49787C17.5768 5.32362 17.5207 5.14736 17.4266 4.98714C17.3725 4.895 17.2924 4.84593 17.1853 4.85194C17.0771 4.85795 16.9689 4.87097 16.7927 4.88799H16.7937Z" fill="black"/>
<path d="M49.7909 7.47479C49.5926 7.4798 49.4033 7.43474 49.218 7.36864C49.0448 7.30756 48.8735 7.23946 48.7013 7.17537C48.6202 7.14532 48.5401 7.11128 48.456 7.09025C48.3188 7.0562 48.1966 7.08424 48.1135 7.21042C48.0414 7.31857 47.9683 7.42572 47.9032 7.53889C47.6718 7.94347 47.4455 8.35105 47.2162 8.75663C47.1311 8.90785 47.0459 9.05906 46.9548 9.20627C46.8927 9.30742 46.8226 9.40456 46.7505 9.49969C46.3459 10.0355 45.7711 9.96636 45.3545 9.73503C45.1192 9.60484 45.003 9.39254 44.996 9.11915C44.991 8.91986 45.0341 8.73259 45.0971 8.54633C45.1783 8.30899 45.2894 8.08667 45.4146 7.87036C45.698 7.38266 45.9844 6.89797 46.2678 6.41127C46.3169 6.32715 46.37 6.24303 46.402 6.1519C46.4781 5.93459 46.4741 5.7293 46.2969 5.54904C46.1286 5.3788 45.9824 5.18953 45.8662 4.97922C45.7651 4.79696 45.699 4.60469 45.708 4.39038C45.713 4.2672 45.7421 4.15104 45.8092 4.0519C46.0125 3.74846 46.3019 3.5682 46.6584 3.50311C46.8827 3.46205 47.091 3.52514 47.2713 3.66134C47.3834 3.74646 47.4896 3.83959 47.5907 3.93773C48.2116 4.5416 48.9196 5.01427 49.7097 5.36778C49.9271 5.46492 50.1424 5.56807 50.3527 5.68023C50.583 5.8034 50.7252 6.00069 50.8123 6.24704C50.9445 6.62057 50.7973 7.0602 50.4658 7.27851C50.2605 7.41371 50.0352 7.4798 49.7899 7.47379L49.7909 7.47479Z" fill="black"/>
<path d="M50.6534 12.5149C50.6464 12.2576 50.7756 12.0222 50.9468 11.8069C51.1832 11.5095 51.4335 11.2251 51.7109 10.9657C51.8381 10.8476 51.9633 10.7284 52.0835 10.6032C52.1576 10.5251 52.2277 10.441 52.2868 10.3508C52.3969 10.1846 52.4059 10.0043 52.3258 9.82409C52.2687 9.69591 52.1976 9.57373 52.1336 9.44855C52.0194 9.22624 51.9232 8.99691 51.8692 8.75256C51.758 8.25685 51.9423 7.90635 52.414 7.71307C52.8936 7.51679 53.2712 7.59991 53.6087 7.99648C53.7418 8.1527 53.858 8.32495 53.9672 8.49819C54.3557 9.11307 54.8615 9.61079 55.4673 10.0084C55.6576 10.1335 55.8469 10.2597 56.0111 10.4189C56.2905 10.6893 56.3936 11.0248 56.3205 11.3983C56.2114 11.9571 55.7617 12.1905 55.3001 12.1424C55.0067 12.1124 54.7293 12.0212 54.4769 11.862C54.3948 11.8099 54.3107 11.7599 54.2306 11.7048C54.0623 11.5896 53.9051 11.6157 53.7539 11.7378C53.6017 11.861 53.4705 12.0062 53.3493 12.1594C53.0729 12.5089 52.7574 12.8214 52.446 13.1388C52.2848 13.3041 52.0985 13.4272 51.8702 13.4883C51.2513 13.6536 50.6444 13.1869 50.6514 12.5159L50.6534 12.5149Z" fill="black"/>
<path d="M27.0394 5.28063C27.0394 5.52999 27.0374 5.77935 26.9423 6.01669C26.754 6.48736 26.1972 6.74272 25.7375 6.56848C25.5583 6.50038 25.4251 6.3782 25.3159 6.22498C25.1687 6.01969 25.0776 5.78836 25.0035 5.55002C24.9033 5.22956 24.8332 4.90109 24.7792 4.56962C24.686 3.99179 24.5288 3.42798 24.3896 2.86017C24.3195 2.57476 24.2764 2.28635 24.2384 1.99693C24.2063 1.75759 24.2284 1.52025 24.2865 1.28692C24.4066 0.803225 24.9003 0.459734 25.39 0.518818C25.6284 0.54786 25.8156 0.671036 25.9598 0.859306C26.087 1.02454 26.1701 1.21181 26.2413 1.40609C26.3584 1.72254 26.4315 2.05101 26.4836 2.38148C26.5737 2.9493 26.7109 3.50609 26.8491 4.06289C26.9483 4.46346 27.0324 4.86604 27.0384 5.28063H27.0394Z" fill="black"/>
</g>
<defs>
<clipPath id="clip0_6164_576">
<rect width="58" height="61.8986" fill="white"/>
</clipPath>
</defs>
</svg>
